<svg id="svg" version="1.1" xmlns="http://www.w3.org/2000/svg" xmlns:xlink="http://www.w3.org/1999/xlink" width="400" height="400" viewBox="0, 0, 400,400"><g id="svgg"><path id="path0" d="M227.800 143.457 C 227.140 143.540,225.160 143.864,223.400 144.178 C 219.071 144.949,215.426 145.520,212.890 145.825 C 210.169 146.151,211.145 144.903,200.427 161.758 L 191.120 176.392 194.060 180.208 C 195.677 182.307,197.810 185.065,198.800 186.338 C 201.713 190.081,210.864 201.935,212.600 204.212 C 213.480 205.367,216.568 209.392,219.463 213.157 L 224.726 220.003 226.300 217.502 L 227.874 215.000 228.368 206.000 C 228.739 199.242,228.997 196.924,229.405 196.695 C 229.823 196.460,229.955 194.993,229.977 190.332 C 229.993 187.001,230.167 184.078,230.364 183.838 C 231.243 182.766,231.341 178.800,230.489 178.800 C 229.564 178.800,229.114 177.921,229.397 176.668 C 229.588 175.824,230.513 151.815,230.571 146.200 C 230.603 143.131,230.580 143.108,227.800 143.457 M119.179 276.700 C 112.500 287.205,106.102 297.252,104.963 299.026 L 102.891 302.252 104.860 304.826 C 105.943 306.242,108.064 309.020,109.574 311.000 C 111.084 312.980,113.102 315.605,114.059 316.834 C 115.017 318.062,118.583 322.697,121.984 327.134 C 125.385 331.570,128.283 335.200,128.425 335.200 C 128.566 335.200,128.797 333.085,128.937 330.500 C 129.077 327.915,129.467 321.930,129.804 317.200 C 130.141 312.470,130.589 305.630,130.800 302.000 C 131.011 298.370,131.463 291.530,131.806 286.800 C 132.149 282.070,132.515 275.320,132.620 271.800 C 132.725 268.280,132.871 263.645,132.945 261.500 C 133.178 254.697,133.149 254.729,119.179 276.700 M236.400 264.629 C 234.970 264.919,232.450 265.357,230.800 265.603 C 229.150 265.850,226.720 266.240,225.400 266.471 C 224.080 266.702,221.920 267.042,220.600 267.227 C 219.280 267.412,216.490 267.855,214.400 268.213 C 212.310 268.570,209.430 268.983,208.000 269.131 C 204.860 269.456,204.755 269.749,205.760 275.400 C 206.112 277.380,206.445 279.630,206.500 280.400 L 206.600 281.800 225.070 281.904 L 243.541 282.008 243.706 273.904 C 243.796 269.447,244.010 265.395,244.182 264.900 C 244.558 263.812,241.032 263.690,236.400 264.629 M200.018 273.166 C 199.773 273.625,199.739 274.000,199.943 274.000 C 200.354 274.000,200.922 272.788,200.642 272.508 C 200.544 272.411,200.264 272.707,200.018 273.166 M209.378 299.652 C 209.750 303.429,209.338 302.764,219.227 315.541 C 222.182 319.359,225.320 323.428,226.200 324.583 C 227.080 325.738,229.202 328.509,230.915 330.741 L 234.029 334.800 236.976 334.800 L 239.923 334.800 240.139 332.700 C 240.257 331.545,240.532 327.360,240.749 323.400 C 240.965 319.440,241.248 315.300,241.378 314.200 C 241.507 313.100,241.787 309.026,242.001 305.147 C 242.214 301.268,242.501 297.803,242.637 297.447 C 242.864 296.857,241.388 296.800,225.991 296.800 L 209.097 296.800 209.378 299.652 " stroke="none" fill="#f3c30c" fill-rule="evenodd"></path><path id="path1" d="M242.918 95.200 C 241.352 97.070,223.671 125.422,224.002 125.533 C 224.221 125.607,224.400 125.902,224.400 126.191 C 224.400 126.479,224.670 126.818,225.000 126.945 C 225.330 127.071,225.600 127.451,225.600 127.787 C 225.600 128.124,225.735 128.404,225.900 128.409 C 226.065 128.414,226.830 129.310,227.600 130.400 C 228.370 131.490,229.135 132.386,229.300 132.391 C 229.465 132.396,229.600 132.670,229.600 133.000 C 229.600 133.330,229.749 133.600,229.932 133.600 C 230.115 133.600,230.862 134.455,231.593 135.500 C 232.324 136.545,233.119 137.580,233.361 137.800 C 233.602 138.020,234.314 138.888,234.942 139.729 L 236.084 141.257 236.734 140.329 C 237.754 138.870,244.896 131.328,255.737 120.261 C 259.002 116.927,261.926 113.828,262.235 113.373 C 262.736 112.635,262.540 111.665,260.398 104.292 C 259.079 99.751,258.000 95.938,258.000 95.818 C 258.000 95.698,256.146 95.600,253.880 95.600 C 251.614 95.600,249.582 95.422,249.364 95.204 C 248.675 94.515,243.494 94.512,242.918 95.200 M256.760 121.286 C 246.609 131.973,244.343 134.336,238.433 140.400 L 232.781 146.200 234.890 146.400 C 237.309 146.629,237.547 147.305,235.313 147.600 L 233.800 147.800 233.538 151.800 C 233.394 154.000,232.979 160.361,232.615 165.936 C 231.950 176.124,231.616 178.204,230.698 177.900 C 230.356 177.787,230.137 176.304,229.999 173.168 L 229.798 168.600 229.584 173.200 C 229.340 178.467,229.394 178.800,230.489 178.800 C 231.341 178.800,231.243 182.766,230.364 183.838 C 230.167 184.078,229.993 187.001,229.977 190.332 C 229.955 194.967,229.821 196.461,229.410 196.695 C 228.839 197.018,227.638 213.771,228.149 214.282 C 228.287 214.420,228.413 213.918,228.428 213.167 C 228.469 211.198,229.134 209.728,229.172 211.524 C 229.187 212.252,229.362 212.747,229.560 212.625 C 229.759 212.502,230.136 213.301,230.400 214.401 C 230.848 216.269,231.600 217.146,231.600 215.800 C 231.600 215.470,231.759 215.200,231.953 215.200 C 232.148 215.200,232.412 214.885,232.542 214.500 C 232.799 213.734,233.654 212.317,234.050 212.000 C 234.187 211.890,234.637 211.169,235.050 210.398 C 235.462 209.627,236.205 208.430,236.700 207.737 C 237.195 207.044,237.600 206.274,237.600 206.026 C 237.600 205.778,237.870 205.471,238.200 205.345 C 238.530 205.218,238.800 204.774,238.800 204.357 C 238.800 203.941,238.948 203.600,239.129 203.600 C 239.310 203.600,239.863 202.790,240.357 201.800 C 240.852 200.810,241.403 200.000,241.581 200.000 C 241.760 200.000,242.006 199.621,242.127 199.158 C 242.401 198.108,243.356 198.362,243.528 199.531 C 243.624 200.184,243.450 200.400,242.828 200.400 C 242.373 200.400,242.000 200.608,242.000 200.862 C 242.000 201.116,241.550 201.914,241.000 202.636 C 240.450 203.357,240.000 204.099,240.000 204.284 C 240.000 204.470,239.496 205.174,238.879 205.849 C 238.263 206.524,237.828 207.284,237.913 207.538 C 237.997 207.792,237.782 208.109,237.433 208.243 C 237.085 208.376,236.800 208.796,236.800 209.176 C 236.800 209.556,236.281 210.386,235.646 211.021 C 235.011 211.655,234.564 212.362,234.652 212.592 C 234.740 212.821,234.269 213.603,233.606 214.329 C 232.943 215.055,232.400 215.908,232.400 216.225 C 232.400 216.541,232.220 216.800,232.000 216.800 C 231.248 216.800,231.603 218.409,235.021 230.499 C 236.903 237.155,238.708 243.545,239.032 244.700 L 239.622 246.800 249.011 246.800 C 257.090 246.800,258.400 246.716,258.400 246.200 C 258.400 245.479,259.188 245.384,259.227 246.100 C 259.318 247.788,259.666 249.426,260.006 249.766 C 260.223 249.983,260.406 250.799,260.413 251.580 C 260.420 252.361,260.690 253.349,261.013 253.776 C 261.776 254.786,261.790 256.800,261.033 256.800 C 260.722 256.800,260.362 256.575,260.233 256.300 C 260.047 255.900,259.953 255.900,259.767 256.300 C 259.638 256.575,259.210 256.800,258.816 256.800 C 258.421 256.800,257.874 257.070,257.600 257.400 C 257.326 257.730,256.882 258.000,256.612 258.000 C 255.421 258.000,253.191 259.572,250.600 262.238 C 247.557 265.369,245.431 265.969,244.878 263.853 C 244.328 261.750,243.633 267.725,243.617 274.700 L 243.600 282.000 276.000 282.000 L 308.400 282.000 308.386 281.100 C 308.378 280.605,308.114 279.750,307.800 279.200 C 307.486 278.650,307.222 277.536,307.214 276.724 C 307.206 275.912,307.045 275.152,306.856 275.035 C 306.667 274.918,306.396 273.980,306.255 272.951 C 306.114 271.922,305.839 270.883,305.644 270.640 C 305.450 270.398,305.191 269.480,305.069 268.600 C 304.742 266.225,303.830 262.496,303.494 262.160 C 303.332 261.999,303.200 261.339,303.200 260.694 C 303.200 260.049,302.944 258.954,302.631 258.260 C 302.318 257.567,301.977 256.370,301.872 255.600 C 301.767 254.830,301.381 253.120,301.015 251.800 C 300.649 250.480,300.214 248.680,300.048 247.800 C 299.883 246.920,299.534 245.807,299.274 245.326 C 299.013 244.846,298.800 243.821,298.800 243.050 C 298.800 242.278,298.620 241.536,298.400 241.400 C 298.180 241.264,298.000 240.544,298.000 239.800 C 298.000 238.346,297.430 237.624,297.054 238.602 C 296.928 238.931,296.459 239.200,296.013 239.200 C 295.566 239.200,295.200 239.380,295.200 239.600 C 295.200 239.820,294.862 240.000,294.449 240.000 C 294.036 240.000,293.474 240.270,293.200 240.600 C 292.926 240.930,292.471 241.200,292.188 241.200 C 291.717 241.200,288.223 242.784,286.800 243.643 C 286.470 243.842,285.930 244.110,285.600 244.238 C 285.270 244.366,284.097 244.905,282.994 245.435 C 281.891 245.966,280.788 246.400,280.543 246.400 C 280.298 246.400,279.874 246.670,279.600 247.000 C 279.326 247.330,278.764 247.600,278.351 247.600 C 277.938 247.600,277.600 247.780,277.600 248.000 C 277.600 248.220,277.178 248.400,276.662 248.400 C 275.611 248.400,274.400 249.527,274.400 250.505 C 274.400 251.488,272.872 251.789,271.980 250.982 C 271.280 250.348,271.196 250.345,270.966 250.946 C 270.827 251.305,270.464 251.600,270.157 251.600 C 269.516 251.600,268.000 253.006,268.000 253.600 C 268.000 253.820,267.820 254.000,267.600 254.000 C 267.380 254.000,267.200 254.360,267.200 254.800 C 267.200 255.244,266.933 255.600,266.600 255.600 C 266.227 255.600,266.000 255.978,266.000 256.600 C 266.000 257.150,265.832 257.600,265.627 257.600 C 265.422 257.600,265.140 257.960,265.000 258.400 C 264.860 258.840,264.578 259.200,264.373 259.200 C 264.168 259.200,264.000 258.840,264.000 258.400 C 264.000 257.960,264.159 257.600,264.353 257.600 C 264.548 257.600,264.822 257.285,264.963 256.900 C 265.462 255.539,266.449 254.000,266.822 254.000 C 267.030 254.000,267.200 253.751,267.200 253.446 C 267.200 252.794,267.870 251.461,269.035 249.794 C 269.494 249.137,269.996 248.330,270.151 248.000 C 270.514 247.223,271.201 246.080,272.200 244.590 C 273.445 242.733,273.983 241.851,274.268 241.200 C 274.412 240.870,274.906 240.064,275.365 239.408 C 276.394 237.939,276.741 237.357,277.971 235.034 C 278.505 234.025,279.090 233.200,279.271 233.200 C 279.452 233.200,279.600 233.023,279.600 232.807 C 279.600 232.591,280.320 231.238,281.200 229.800 C 282.080 228.362,282.800 227.009,282.800 226.793 C 282.800 226.577,282.948 226.400,283.129 226.400 C 283.310 226.400,283.857 225.635,284.344 224.700 C 285.398 222.678,286.115 221.474,286.429 221.200 C 286.555 221.090,286.782 220.730,286.934 220.400 C 287.085 220.070,287.569 219.260,288.009 218.600 C 288.449 217.940,288.918 217.085,289.051 216.700 C 289.184 216.315,289.431 216.000,289.600 216.000 C 289.769 216.000,290.012 215.685,290.142 215.300 C 290.271 214.915,290.586 214.317,290.841 213.971 C 291.210 213.472,290.748 211.369,288.599 203.771 C 287.110 198.507,285.740 193.660,285.555 193.000 L 285.218 191.800 274.748 191.919 C 268.990 191.985,264.121 191.881,263.929 191.689 C 263.729 191.489,265.428 189.653,267.889 187.409 C 273.585 182.217,280.397 175.615,280.412 175.273 C 280.469 173.945,275.745 158.800,275.274 158.800 C 274.855 158.800,274.816 158.663,275.127 158.289 C 275.436 157.916,274.763 155.010,272.648 147.589 C 271.052 141.985,268.318 132.317,266.573 126.105 C 264.828 119.893,263.292 114.808,263.160 114.805 C 263.028 114.802,260.148 117.718,256.760 121.286 M227.400 143.062 C 226.212 143.202,221.206 143.998,215.800 144.907 C 214.260 145.166,213.356 145.449,213.791 145.536 C 214.560 145.689,216.780 145.376,223.400 144.180 C 225.160 143.862,227.500 143.556,228.600 143.501 L 230.600 143.400 230.837 145.400 L 231.074 147.400 231.137 145.100 L 231.200 142.800 229.900 142.860 C 229.185 142.893,228.060 142.984,227.400 143.062 M210.400 145.931 C 210.400 146.113,210.940 146.182,211.600 146.085 C 212.260 145.988,212.800 145.840,212.800 145.755 C 212.800 145.670,212.260 145.600,211.600 145.600 C 210.940 145.600,210.400 145.749,210.400 145.931 M240.691 148.100 C 240.496 148.657,238.424 148.566,237.820 147.973 C 237.584 147.741,238.089 147.600,239.153 147.600 C 240.351 147.600,240.814 147.751,240.691 148.100 M244.583 148.772 C 244.976 149.409,244.013 149.692,242.474 149.392 C 241.223 149.148,241.121 149.055,241.800 148.780 C 242.910 148.331,244.308 148.327,244.583 148.772 M230.244 154.400 C 230.073 157.590,229.994 161.190,230.069 162.400 C 230.143 163.610,230.358 161.450,230.545 157.600 C 230.732 153.750,230.811 150.150,230.721 149.600 C 230.630 149.050,230.416 151.210,230.244 154.400 M248.400 150.230 C 248.400 150.668,248.735 150.838,249.500 150.788 C 251.323 150.668,252.000 150.779,252.000 151.200 C 252.000 151.694,248.931 151.735,248.628 151.245 C 248.507 151.050,247.777 150.772,247.004 150.627 C 245.190 150.287,245.187 149.600,247.000 149.600 C 248.008 149.600,248.400 149.777,248.400 150.230 M255.600 152.200 C 255.600 152.815,254.556 152.988,253.435 152.558 C 252.482 152.192,253.093 151.600,254.424 151.600 C 255.203 151.600,255.600 151.803,255.600 152.200 M259.523 153.230 C 259.445 153.466,259.250 153.647,259.090 153.630 C 258.930 153.614,258.260 153.600,257.600 153.600 C 256.940 153.600,256.400 153.420,256.400 153.200 C 256.400 152.980,257.135 152.800,258.033 152.800 C 259.020 152.800,259.610 152.970,259.523 153.230 M263.102 154.300 C 263.213 154.637,262.806 154.800,261.857 154.800 C 260.329 154.800,259.553 154.179,260.695 153.870 C 261.826 153.563,262.924 153.760,263.102 154.300 M266.921 155.400 C 266.878 155.620,266.549 155.861,266.189 155.935 C 265.165 156.148,263.540 155.620,263.821 155.166 C 264.143 154.646,267.027 154.863,266.921 155.400 M270.400 156.400 C 270.400 156.620,269.770 156.800,269.000 156.800 C 268.230 156.800,267.600 156.620,267.600 156.400 C 267.600 156.180,268.230 156.000,269.000 156.000 C 269.770 156.000,270.400 156.180,270.400 156.400 M274.400 157.400 C 274.400 158.053,272.215 158.271,271.834 157.656 C 271.501 157.117,272.032 156.800,273.267 156.800 C 274.007 156.800,274.400 157.008,274.400 157.400 M191.157 177.100 C 191.368 177.485,192.417 178.880,193.486 180.200 C 194.556 181.520,196.234 183.657,197.216 184.949 C 203.040 192.618,207.330 198.179,207.591 198.400 C 207.721 198.510,209.171 200.379,210.814 202.554 C 212.456 204.729,214.250 207.091,214.800 207.803 C 215.350 208.515,217.677 211.548,219.971 214.544 C 222.265 217.540,224.217 219.916,224.310 219.823 C 224.402 219.731,222.165 216.654,219.339 212.986 C 216.513 209.318,213.480 205.371,212.600 204.215 C 210.960 202.060,204.290 193.422,194.257 180.460 C 191.264 176.594,190.309 175.559,191.157 177.100 M230.111 202.488 C 229.987 204.847,229.732 206.682,229.543 206.565 C 229.138 206.315,229.074 198.259,229.473 197.860 C 230.141 197.193,230.320 198.497,230.111 202.488 M244.800 201.624 C 244.800 202.051,244.530 202.400,244.200 202.400 C 243.607 202.400,243.361 201.172,243.856 200.678 C 244.273 200.261,244.800 200.789,244.800 201.624 M245.600 203.600 C 245.600 204.040,245.420 204.400,245.200 204.400 C 244.980 204.400,244.800 204.040,244.800 203.600 C 244.800 203.160,244.980 202.800,245.200 202.800 C 245.420 202.800,245.600 203.160,245.600 203.600 M248.107 207.111 C 249.397 209.777,249.521 210.920,248.500 210.726 C 248.078 210.646,247.750 210.158,247.673 209.497 C 247.604 208.893,247.379 208.400,247.173 208.400 C 246.968 208.400,246.800 208.015,246.800 207.544 C 246.800 207.073,246.503 206.471,246.139 206.205 C 245.449 205.700,245.700 204.792,246.524 204.811 C 246.786 204.817,247.498 205.852,248.107 207.111 M249.994 213.533 C 249.998 214.423,249.834 214.812,249.500 214.702 C 248.929 214.515,248.617 212.655,248.992 211.677 C 249.368 210.697,249.986 211.843,249.994 213.533 M250.902 216.500 C 251.122 217.985,250.882 218.898,250.358 218.574 C 249.893 218.287,249.890 215.200,250.355 215.200 C 250.550 215.200,250.796 215.785,250.902 216.500 M164.400 220.376 C 164.400 221.023,164.220 221.664,164.000 221.800 C 163.780 221.936,163.600 222.942,163.600 224.036 C 163.600 225.435,163.422 226.093,163.000 226.255 C 162.581 226.416,162.400 227.069,162.400 228.419 C 162.400 229.483,162.220 230.464,162.000 230.600 C 161.780 230.736,161.599 231.512,161.598 232.324 C 161.596 233.136,161.326 234.316,160.998 234.946 C 160.669 235.576,160.400 236.887,160.400 237.858 C 160.400 239.060,160.208 239.699,159.800 239.855 C 159.458 239.987,159.200 240.583,159.200 241.243 L 159.200 242.400 167.880 242.400 C 174.631 242.400,176.453 242.293,176.080 241.920 C 175.816 241.656,175.600 241.135,175.600 240.763 C 175.600 240.390,175.330 239.982,175.000 239.855 C 174.670 239.729,174.400 239.270,174.400 238.836 C 174.400 238.402,174.220 237.936,174.000 237.800 C 173.780 237.664,173.600 237.198,173.600 236.764 C 173.600 236.330,173.330 235.871,173.000 235.745 C 172.670 235.618,172.400 235.278,172.400 234.990 C 172.400 234.355,171.120 231.853,170.700 231.667 C 170.535 231.593,170.400 231.098,170.400 230.567 C 170.400 230.035,170.214 229.600,169.987 229.600 C 169.761 229.600,169.469 229.285,169.339 228.900 C 168.701 227.011,167.812 225.200,167.523 225.200 C 167.345 225.200,167.200 224.862,167.200 224.449 C 167.200 224.036,166.930 223.474,166.600 223.200 C 166.270 222.926,166.000 222.482,166.000 222.212 C 166.000 221.659,164.833 219.200,164.571 219.200 C 164.477 219.200,164.400 219.729,164.400 220.376 M252.000 221.024 C 252.000 222.358,251.511 222.827,250.994 221.990 C 250.632 221.404,251.192 219.148,251.633 219.420 C 251.835 219.545,252.000 220.267,252.000 221.024 M253.172 225.533 C 253.189 226.110,253.009 226.404,252.700 226.302 C 252.104 226.106,251.826 224.612,252.211 223.671 C 252.547 222.850,253.125 223.970,253.172 225.533 M155.200 232.910 C 149.581 241.725,149.214 242.400,150.043 242.400 C 151.089 242.400,160.000 232.683,160.000 231.542 C 160.000 230.951,160.189 230.404,160.419 230.327 C 160.675 230.242,160.792 229.067,160.719 227.313 L 160.600 224.438 155.200 232.910 M254.000 228.400 C 254.000 229.280,253.820 230.000,253.600 230.000 C 253.380 230.000,253.200 229.280,253.200 228.400 C 253.200 227.520,253.380 226.800,253.600 226.800 C 253.820 226.800,254.000 227.520,254.000 228.400 M255.200 232.400 C 255.200 233.705,254.518 234.373,254.154 233.424 C 253.826 232.569,254.331 230.710,254.812 231.007 C 255.025 231.139,255.200 231.766,255.200 232.400 M256.227 237.474 C 256.105 237.791,255.824 237.939,255.603 237.802 C 255.139 237.515,255.055 235.078,255.494 234.640 C 255.876 234.257,256.515 236.724,256.227 237.474 M155.938 238.883 C 154.474 240.487,153.139 241.935,152.971 242.100 C 152.804 242.265,153.777 242.400,155.133 242.400 C 157.540 242.400,157.600 242.374,157.600 241.331 C 157.600 240.744,157.882 239.951,158.226 239.571 C 158.619 239.137,158.806 238.335,158.726 237.422 L 158.600 235.966 155.938 238.883 M257.200 240.000 C 257.200 241.616,256.690 242.132,256.243 240.968 C 255.943 240.185,256.360 238.400,256.843 238.400 C 257.040 238.400,257.200 239.120,257.200 240.000 M258.394 244.300 C 258.398 244.836,258.157 245.200,257.800 245.200 C 257.185 245.200,256.928 243.206,257.473 242.661 C 257.855 242.279,258.387 243.225,258.394 244.300 M240.621 250.100 C 241.228 251.865,241.982 253.510,242.501 254.200 C 244.067 256.284,246.400 259.646,246.400 259.818 C 246.400 259.937,246.586 260.251,246.814 260.517 C 247.041 260.783,247.479 261.360,247.787 261.800 C 248.401 262.678,252.361 259.213,252.983 257.254 C 253.132 256.784,253.422 256.400,253.627 256.400 C 253.832 256.400,254.000 255.972,254.000 255.449 C 254.000 254.926,254.270 254.274,254.600 254.000 C 254.930 253.726,255.200 253.264,255.200 252.972 C 255.200 252.681,255.650 251.596,256.200 250.562 C 256.750 249.527,257.200 248.618,257.200 248.540 C 257.200 248.463,253.338 248.400,248.618 248.400 L 240.035 248.400 240.621 250.100 M131.600 257.200 C 131.600 257.420,131.933 257.600,132.339 257.600 C 133.017 257.600,133.067 257.926,132.945 261.500 C 132.871 263.645,132.725 268.280,132.620 271.800 C 132.515 275.320,132.149 282.070,131.806 286.800 C 131.463 291.530,131.011 298.370,130.800 302.000 C 130.589 305.630,130.141 312.470,129.804 317.200 C 129.467 321.930,129.077 327.915,128.937 330.500 C 128.797 333.085,128.566 335.200,128.425 335.200 C 128.283 335.200,125.385 331.569,121.984 327.130 C 118.583 322.692,115.086 318.147,114.214 317.030 C 112.620 314.990,108.881 310.109,105.083 305.113 C 103.959 303.635,102.962 302.504,102.867 302.600 C 102.718 302.748,108.530 310.638,109.201 311.200 C 109.333 311.310,110.506 312.840,111.809 314.600 C 113.112 316.360,114.288 317.890,114.424 318.000 C 114.559 318.110,115.680 319.550,116.914 321.200 C 118.149 322.850,120.153 325.460,121.367 327.000 C 122.581 328.540,124.525 331.108,125.687 332.706 C 128.120 336.052,129.308 336.658,130.498 335.160 C 130.917 334.632,131.650 333.750,132.126 333.200 C 132.602 332.650,133.331 331.570,133.746 330.800 C 134.161 330.030,134.614 329.310,134.754 329.200 C 134.893 329.090,135.362 328.325,135.795 327.500 C 136.228 326.675,136.700 326.000,136.844 326.000 C 136.989 326.000,137.212 325.685,137.342 325.300 C 137.588 324.566,138.049 323.793,139.428 321.800 C 139.885 321.140,140.383 320.330,140.534 320.000 C 140.685 319.670,141.154 318.860,141.575 318.200 C 141.997 317.540,142.355 316.685,142.371 316.300 C 142.407 315.427,143.032 315.385,143.357 316.233 C 143.741 317.234,143.646 317.600,143.000 317.600 C 142.670 317.600,142.400 317.934,142.400 318.342 C 142.400 318.749,141.950 319.569,141.400 320.162 C 140.850 320.756,140.400 321.480,140.400 321.772 C 140.400 322.063,140.130 322.526,139.800 322.800 C 139.470 323.074,139.200 323.546,139.200 323.849 C 139.200 324.152,139.020 324.400,138.800 324.400 C 138.580 324.400,138.400 324.676,138.400 325.013 C 138.400 325.349,138.130 325.729,137.800 325.855 C 137.470 325.982,137.200 326.400,137.200 326.784 C 137.200 327.169,136.750 327.969,136.200 328.562 C 135.650 329.156,135.200 329.908,135.200 330.233 C 135.200 330.559,134.930 330.929,134.600 331.055 C 134.270 331.182,134.000 331.626,134.000 332.043 C 134.000 332.459,133.820 332.800,133.600 332.800 C 133.380 332.800,133.200 333.076,133.200 333.413 C 133.200 333.749,132.930 334.129,132.600 334.255 C 132.270 334.382,132.000 334.843,132.000 335.280 C 132.000 335.738,131.661 336.163,131.200 336.284 C 130.760 336.399,130.400 336.737,130.400 337.034 C 130.400 337.818,128.784 340.800,128.360 340.800 C 128.162 340.800,128.000 341.078,128.000 341.417 C 128.000 341.994,127.744 342.398,126.500 343.785 C 126.225 344.092,126.000 344.631,126.000 344.984 C 126.000 345.337,125.730 345.729,125.400 345.855 C 125.070 345.982,124.800 346.344,124.800 346.660 C 124.800 347.197,124.535 347.608,123.300 348.985 C 123.025 349.292,122.800 349.806,122.800 350.129 C 122.800 350.451,122.530 350.818,122.200 350.945 C 120.364 351.649,121.997 352.000,127.100 351.996 L 132.600 351.991 135.976 346.696 C 137.833 343.783,140.309 339.915,141.478 338.100 L 143.605 334.800 145.382 334.800 C 146.659 334.800,147.271 334.603,147.553 334.100 C 147.927 333.433,147.959 333.433,148.216 334.100 C 148.465 334.745,149.433 334.800,160.631 334.800 L 172.775 334.800 174.270 332.500 C 175.092 331.235,176.110 329.570,176.533 328.800 C 176.955 328.030,177.413 327.310,177.550 327.200 C 177.876 326.939,178.560 325.802,179.656 323.700 C 180.143 322.765,180.690 322.000,180.871 322.000 C 181.052 322.000,181.200 321.817,181.200 321.593 C 181.200 321.369,182.064 319.793,183.120 318.091 C 184.175 316.389,185.167 314.727,185.324 314.398 C 185.481 314.069,185.969 313.260,186.409 312.600 C 186.849 311.940,187.318 311.085,187.451 310.700 C 187.584 310.315,187.831 310.000,188.000 310.000 C 188.169 310.000,188.412 309.685,188.542 309.300 C 188.671 308.915,188.955 308.330,189.173 308.000 C 189.391 307.670,190.483 305.870,191.600 304.000 C 192.717 302.130,193.805 300.330,194.018 300.000 C 194.231 299.670,194.529 299.130,194.680 298.800 C 194.831 298.470,195.223 297.930,195.549 297.600 C 196.077 297.067,194.556 296.978,181.889 296.800 L 167.635 296.600 174.618 285.606 C 182.251 273.588,181.964 274.123,180.740 274.168 C 180.268 274.186,179.803 273.975,179.707 273.700 C 179.589 273.361,179.990 273.200,180.948 273.200 C 182.520 273.200,182.389 273.340,185.790 268.009 C 186.979 266.144,187.828 264.524,187.676 264.409 C 187.211 264.056,186.000 261.570,186.000 260.968 C 186.000 260.655,185.847 260.400,185.660 260.400 C 185.473 260.400,184.987 259.590,184.578 258.600 L 183.836 256.800 170.062 256.800 C 154.459 256.800,155.236 256.629,155.213 260.057 C 155.204 261.330,155.011 261.987,154.600 262.145 C 154.165 262.311,154.000 262.993,154.000 264.621 C 154.000 266.244,153.861 266.818,153.500 266.693 C 153.225 266.597,153.033 266.087,153.072 265.560 C 153.162 264.375,152.420 262.340,151.995 262.603 C 151.524 262.894,149.200 262.351,149.200 261.950 C 149.200 261.757,150.190 261.600,151.400 261.600 L 153.600 261.600 153.600 259.680 C 153.600 258.624,153.816 257.544,154.080 257.280 C 154.453 256.907,152.799 256.800,146.638 256.800 L 138.715 256.800 137.923 257.808 C 136.897 259.112,134.447 259.021,133.944 257.661 C 133.619 256.782,131.600 256.385,131.600 257.200 M264.000 260.469 C 264.000 261.859,261.791 260.492,261.672 259.027 L 261.543 257.454 262.772 258.770 C 263.447 259.493,264.000 260.258,264.000 260.469 M141.402 258.803 C 141.539 259.024,141.369 259.314,141.024 259.446 C 140.169 259.774,138.310 259.269,138.607 258.788 C 138.924 258.276,141.083 258.288,141.402 258.803 M145.200 260.000 C 145.200 260.220,144.480 260.400,143.600 260.400 C 142.720 260.400,142.000 260.220,142.000 260.000 C 142.000 259.780,142.720 259.600,143.600 259.600 C 144.480 259.600,145.200 259.780,145.200 260.000 M148.702 261.100 C 148.809 261.426,148.446 261.600,147.657 261.600 C 146.376 261.600,145.652 261.012,146.498 260.658 C 147.312 260.318,148.524 260.561,148.702 261.100 M234.200 264.481 C 229.891 265.137,226.184 266.018,228.600 265.813 C 231.702 265.548,236.473 264.832,237.800 264.431 L 239.000 264.069 237.800 264.092 C 237.140 264.105,235.520 264.281,234.200 264.481 M133.590 268.004 C 133.324 269.651,133.299 269.568,133.284 267.000 C 133.274 265.123,133.369 264.531,133.574 265.204 C 133.742 265.756,133.749 267.016,133.590 268.004 M252.400 265.176 C 252.400 265.804,251.693 266.039,250.618 265.769 C 249.137 265.397,249.372 264.800,251.000 264.800 C 251.770 264.800,252.400 264.969,252.400 265.176 M255.765 265.842 C 256.771 266.228,256.076 266.800,254.600 266.800 C 253.121 266.800,252.368 266.171,253.495 265.877 C 254.599 265.589,255.086 265.581,255.765 265.842 M221.800 266.420 C 220.127 266.758,214.184 267.722,209.400 268.431 C 204.339 269.181,204.580 268.975,204.733 272.413 C 204.806 274.056,205.121 276.416,205.433 277.658 C 205.745 278.899,206.000 280.384,206.000 280.958 C 206.000 281.531,206.146 282.000,206.324 282.000 C 206.701 282.000,206.247 277.255,205.583 274.263 C 205.332 273.128,205.188 271.570,205.263 270.800 L 205.400 269.400 208.000 269.131 C 209.430 268.983,212.310 268.570,214.400 268.213 C 216.490 267.855,219.460 267.385,221.000 267.167 C 222.540 266.950,224.430 266.616,225.200 266.427 L 226.600 266.082 225.000 266.089 C 224.120 266.093,222.680 266.242,221.800 266.420 M259.855 267.400 C 260.012 267.807,260.650 268.000,261.843 268.000 C 262.809 268.000,263.600 268.180,263.600 268.400 C 263.600 268.890,260.532 268.938,260.232 268.453 C 260.114 268.261,259.285 267.988,258.390 267.845 C 256.561 267.552,256.594 266.800,258.436 266.800 C 259.124 266.800,259.722 267.053,259.855 267.400 M153.037 270.649 C 152.920 270.952,152.639 271.200,152.413 271.200 C 151.946 271.200,151.842 268.291,152.294 267.840 C 152.669 267.465,153.318 269.917,153.037 270.649 M267.102 269.500 C 267.209 269.826,266.846 270.000,266.057 270.000 C 264.776 270.000,264.052 269.412,264.898 269.058 C 265.712 268.718,266.924 268.961,267.102 269.500 M244.697 276.084 C 244.618 277.468,244.553 276.440,244.553 273.800 C 244.552 271.160,244.616 270.028,244.695 271.284 C 244.774 272.541,244.775 274.701,244.697 276.084 M271.200 270.376 C 271.200 270.583,271.048 270.847,270.862 270.961 C 270.330 271.291,267.592 270.737,267.832 270.349 C 268.123 269.877,271.200 269.902,271.200 270.376 M201.022 272.200 C 200.613 273.190,200.056 274.000,199.783 274.000 C 199.509 274.000,199.186 274.261,199.063 274.580 C 198.766 275.355,200.449 274.764,200.824 273.961 C 200.968 273.653,201.382 272.832,201.743 272.138 C 202.480 270.723,202.543 270.400,202.082 270.400 C 201.907 270.400,201.430 271.210,201.022 272.200 M274.308 271.525 C 274.407 271.822,274.013 272.000,273.257 272.000 C 271.792 272.000,271.229 271.325,272.494 271.086 C 273.705 270.857,274.119 270.957,274.308 271.525 M151.994 274.300 C 151.998 275.192,151.812 275.600,151.400 275.600 C 150.739 275.600,150.672 275.138,151.056 273.218 C 151.371 271.645,151.985 272.353,151.994 274.300 M278.400 272.600 C 278.400 273.220,277.019 273.413,275.835 272.958 C 274.822 272.569,275.528 272.000,277.024 272.000 C 277.980 272.000,278.400 272.183,278.400 272.600 M282.000 273.600 C 282.000 273.820,281.370 274.000,280.600 274.000 C 279.830 274.000,279.200 273.820,279.200 273.600 C 279.200 273.380,279.830 273.200,280.600 273.200 C 281.370 273.200,282.000 273.380,282.000 273.600 M177.231 274.266 C 178.359 274.492,178.443 274.579,177.781 274.838 C 176.712 275.256,173.200 275.278,173.200 274.867 C 173.200 273.972,174.666 273.753,177.231 274.266 M285.902 274.700 C 286.013 275.036,285.606 275.200,284.657 275.200 C 283.212 275.200,282.398 274.635,283.298 274.257 C 284.143 273.901,285.729 274.171,285.902 274.700 M172.167 275.547 C 172.285 275.738,171.551 276.008,170.535 276.147 C 167.789 276.523,167.200 276.462,167.200 275.800 C 167.200 275.129,171.765 274.896,172.167 275.547 M289.600 275.576 C 289.600 275.783,289.438 276.053,289.241 276.175 C 288.700 276.509,286.381 275.955,286.630 275.551 C 286.923 275.078,289.600 275.101,289.600 275.576 M164.656 276.400 C 165.482 276.400,165.947 276.563,165.800 276.800 C 165.490 277.301,161.200 277.333,161.200 276.833 C 161.200 276.354,162.057 276.018,162.733 276.232 C 163.026 276.324,163.891 276.400,164.656 276.400 M293.108 276.725 C 293.211 277.033,292.762 277.200,291.833 277.200 C 290.253 277.200,289.877 276.555,291.300 276.285 C 292.505 276.057,292.919 276.158,293.108 276.725 M152.187 278.400 C 152.744 278.400,153.200 278.580,153.200 278.800 C 153.200 279.020,152.953 279.200,152.650 279.200 C 152.347 279.200,151.537 279.313,150.850 279.450 C 149.471 279.726,149.355 279.478,150.041 277.726 C 150.478 276.611,150.486 276.609,150.828 277.500 C 151.061 278.105,151.506 278.400,152.187 278.400 M159.532 277.550 C 159.907 277.787,159.685 277.963,158.782 278.144 C 156.002 278.700,154.168 278.365,155.067 277.467 C 155.449 277.085,158.900 277.149,159.532 277.550 M297.103 277.900 C 297.281 278.444,296.028 278.557,294.466 278.139 C 293.763 277.951,293.664 277.803,294.066 277.540 C 294.815 277.051,296.905 277.299,297.103 277.900 M300.583 278.772 C 300.709 278.977,300.638 279.253,300.425 279.385 C 299.909 279.704,298.000 279.209,298.000 278.757 C 298.000 278.282,300.289 278.296,300.583 278.772 M304.167 279.443 C 305.326 279.887,304.820 280.400,303.224 280.400 C 301.567 280.400,300.691 279.791,301.895 279.477 C 303.000 279.189,303.486 279.181,304.167 279.443 M307.600 281.047 C 307.600 281.522,307.362 281.629,306.700 281.452 C 306.205 281.319,305.654 281.208,305.476 281.205 C 305.298 281.202,305.264 281.020,305.400 280.800 C 305.817 280.125,307.600 280.325,307.600 281.047 M138.060 295.000 C 138.060 295.209,137.867 295.445,137.630 295.523 C 137.393 295.602,137.200 295.367,137.200 295.000 C 137.200 294.633,137.393 294.398,137.630 294.477 C 137.867 294.555,138.060 294.791,138.060 295.000 M208.150 297.413 C 208.279 297.750,208.603 299.235,208.869 300.713 C 209.135 302.191,209.455 303.490,209.580 303.600 C 209.705 303.710,210.302 304.520,210.906 305.400 C 211.510 306.280,212.994 308.260,214.203 309.800 C 215.413 311.340,217.391 313.901,218.598 315.491 C 219.805 317.081,221.064 318.701,221.397 319.091 C 221.730 319.481,223.036 321.170,224.301 322.844 C 230.419 330.944,233.428 334.758,233.715 334.778 C 233.888 334.790,232.628 332.974,230.915 330.741 C 229.202 328.509,227.080 325.738,226.200 324.583 C 225.320 323.428,222.182 319.359,219.227 315.541 C 209.338 302.764,209.750 303.429,209.378 299.652 C 209.169 297.529,208.945 296.800,208.506 296.800 C 208.139 296.800,208.004 297.033,208.150 297.413 M242.637 297.447 C 242.501 297.803,242.214 301.268,242.001 305.147 C 241.787 309.026,241.507 313.100,241.378 314.200 C 241.248 315.300,240.965 319.440,240.749 323.400 C 240.532 327.360,240.257 331.545,240.139 332.700 L 239.923 334.800 241.321 334.800 C 242.672 334.800,242.737 334.870,243.208 336.831 C 243.718 338.958,244.122 338.840,245.040 336.300 C 245.332 335.494,245.826 335.395,246.238 336.061 C 246.394 336.314,246.225 336.739,245.861 337.005 C 245.497 337.271,245.200 337.773,245.200 338.120 C 245.200 338.468,245.020 338.864,244.800 339.000 C 244.094 339.436,246.497 350.532,247.546 351.682 C 247.956 352.131,264.920 345.206,265.647 344.293 C 266.063 343.771,266.351 343.652,266.453 343.960 C 266.595 344.384,301.217 330.873,302.089 330.054 C 302.247 329.905,301.274 325.872,299.925 321.091 L 297.473 312.400 287.336 312.400 C 277.467 312.400,277.200 312.379,277.200 311.600 C 277.200 311.160,277.335 310.798,277.500 310.797 C 277.665 310.795,278.430 310.208,279.200 309.493 C 279.970 308.778,281.860 307.121,283.400 305.812 C 284.940 304.503,287.752 301.940,289.648 300.116 L 293.097 296.800 267.991 296.800 C 245.235 296.800,242.862 296.861,242.637 297.447 M144.132 320.634 C 144.012 320.945,143.754 321.200,143.557 321.200 C 143.131 321.200,143.074 318.659,143.491 318.242 C 143.870 317.863,144.415 319.896,144.132 320.634 M257.128 319.931 C 257.224 320.584,257.050 320.800,256.428 320.800 C 255.973 320.800,255.600 320.997,255.600 321.238 C 255.600 321.479,255.195 322.241,254.700 322.930 C 253.489 324.616,252.863 325.660,252.560 326.500 C 252.421 326.885,252.063 327.200,251.766 327.200 C 251.468 327.200,251.318 327.441,251.431 327.736 C 251.544 328.031,251.358 328.503,251.018 328.785 C 250.678 329.067,250.400 329.468,250.400 329.676 C 250.400 329.883,249.950 330.643,249.400 331.364 C 248.850 332.086,248.394 332.839,248.386 333.038 C 248.359 333.705,246.439 335.773,246.132 335.465 C 245.965 335.298,246.052 334.855,246.326 334.481 C 246.599 334.106,246.929 333.485,247.058 333.100 C 247.188 332.715,247.420 332.400,247.576 332.400 C 247.731 332.400,248.263 331.590,248.757 330.600 C 249.252 329.610,249.781 328.800,249.934 328.800 C 250.086 328.800,250.523 328.080,250.904 327.200 C 251.286 326.320,251.778 325.600,251.999 325.600 C 252.219 325.600,252.400 325.240,252.400 324.800 C 252.400 324.360,252.551 324.000,252.736 324.000 C 252.920 324.000,253.415 323.282,253.836 322.405 C 254.256 321.527,254.739 320.807,254.910 320.805 C 255.080 320.802,255.396 320.335,255.612 319.767 C 256.067 318.571,256.942 318.666,257.128 319.931 M258.400 322.024 C 258.400 322.858,257.812 323.066,257.388 322.381 C 257.025 321.794,257.509 320.696,257.997 320.998 C 258.219 321.135,258.400 321.597,258.400 322.024 M145.200 323.400 C 145.200 324.736,144.716 325.235,144.211 324.418 C 143.895 323.907,144.394 322.000,144.843 322.000 C 145.040 322.000,145.200 322.630,145.200 323.400 M259.200 324.000 C 259.200 324.440,259.020 324.800,258.800 324.800 C 258.580 324.800,258.400 324.440,258.400 324.000 C 258.400 323.560,258.580 323.200,258.800 323.200 C 259.020 323.200,259.200 323.560,259.200 324.000 M261.747 326.233 C 261.938 326.875,262.253 327.713,262.447 328.095 C 263.100 329.379,262.883 331.274,262.100 331.125 C 261.715 331.052,261.340 330.567,261.266 330.047 C 261.192 329.528,260.787 328.489,260.366 327.739 C 259.477 326.157,259.397 325.348,260.100 325.067 C 260.960 324.723,261.388 325.025,261.747 326.233 M146.372 327.900 C 146.389 328.446,146.164 328.800,145.800 328.800 C 145.171 328.800,144.919 326.414,145.487 325.846 C 145.834 325.499,146.333 326.657,146.372 327.900 M147.200 331.224 C 147.200 332.091,147.020 332.800,146.800 332.800 C 146.580 332.800,146.400 331.979,146.400 330.976 C 146.400 329.863,146.556 329.249,146.800 329.400 C 147.020 329.536,147.200 330.357,147.200 331.224 M263.600 333.657 C 263.600 334.766,263.444 335.216,263.100 335.102 C 262.546 334.921,262.213 333.065,262.567 332.141 C 262.973 331.085,263.600 332.006,263.600 333.657 M264.539 336.796 C 264.809 338.144,264.498 339.308,263.958 338.974 C 263.496 338.688,263.488 335.600,263.950 335.600 C 264.143 335.600,264.408 336.138,264.539 336.796 M265.600 341.424 C 265.600 342.758,265.111 343.227,264.594 342.390 C 264.232 341.804,264.792 339.548,265.233 339.820 C 265.435 339.945,265.600 340.667,265.600 341.424 M72.842 349.535 C 71.229 352.048,71.207 352.000,73.987 352.000 C 76.544 352.000,76.516 352.038,75.600 349.800 C 75.420 349.360,75.172 348.685,75.049 348.300 C 74.690 347.178,74.166 347.471,72.842 349.535 " stroke="none" fill="#dc6b17" fill-rule="evenodd"></path><path id="path2" d="M243.654 93.900 C 243.267 94.621,243.414 94.671,246.088 94.721 C 247.653 94.750,249.119 94.959,249.347 95.187 C 250.202 96.042,257.953 95.706,257.722 94.824 C 257.542 94.135,257.044 94.026,253.260 93.843 C 250.917 93.730,247.889 93.524,246.532 93.385 C 244.359 93.162,244.015 93.224,243.654 93.900 M262.412 113.000 C 262.405 113.220,259.498 116.370,255.952 120.000 C 243.710 132.530,236.400 140.364,236.400 140.951 C 236.400 141.156,235.995 140.981,235.500 140.562 C 234.601 139.801,234.601 139.801,235.300 140.631 C 236.215 141.718,236.188 142.671,235.228 143.185 C 234.803 143.412,234.057 144.184,233.570 144.899 C 232.743 146.114,239.920 138.968,247.343 131.186 C 264.702 112.987,263.474 114.403,262.840 113.315 C 262.612 112.922,262.419 112.780,262.412 113.000 M217.077 135.693 C 211.942 143.749,211.706 144.207,212.634 144.327 C 214.002 144.505,213.425 145.193,211.876 145.232 C 211.174 145.249,210.843 145.360,211.139 145.478 C 211.436 145.596,213.236 145.409,215.139 145.062 C 221.331 143.934,225.747 143.243,228.500 142.972 L 231.200 142.707 231.206 143.853 C 231.211 144.673,231.313 144.841,231.566 144.442 C 231.760 144.135,232.202 143.992,232.547 144.124 C 232.892 144.257,233.287 144.182,233.426 143.958 C 233.729 143.467,232.847 141.200,232.351 141.200 C 232.158 141.200,232.000 141.031,232.000 140.824 C 232.000 140.502,228.380 135.143,227.200 133.717 C 226.980 133.451,226.800 133.061,226.800 132.850 C 226.800 132.639,226.657 132.407,226.483 132.333 C 226.309 132.260,225.754 131.525,225.250 130.700 C 224.747 129.875,224.169 129.200,223.967 129.200 C 223.765 129.200,223.600 128.952,223.600 128.649 C 223.600 126.057,222.378 127.377,217.077 135.693 M228.237 131.800 C 228.597 132.350,229.050 132.800,229.243 132.800 C 229.437 132.800,229.203 132.350,228.725 131.800 C 228.247 131.250,227.794 130.800,227.719 130.800 C 227.643 130.800,227.876 131.250,228.237 131.800 M230.366 134.300 C 230.583 134.685,231.234 135.540,231.812 136.200 C 232.608 137.108,232.548 136.938,231.564 135.500 C 230.280 133.622,229.602 132.944,230.366 134.300 M226.105 142.682 C 225.614 142.777,224.714 142.779,224.105 142.687 C 223.497 142.595,223.900 142.517,225.000 142.514 C 226.100 142.511,226.597 142.587,226.105 142.682 M220.000 143.600 C 220.000 143.820,219.235 143.987,218.300 143.972 C 216.983 143.950,216.780 143.866,217.400 143.600 C 218.516 143.121,220.000 143.121,220.000 143.600 M233.230 147.099 C 233.603 147.696,234.017 147.798,235.347 147.621 C 237.680 147.309,237.401 146.623,234.883 146.479 C 232.908 146.365,232.797 146.407,233.230 147.099 M230.937 150.200 C 230.939 151.960,231.009 152.630,231.093 151.689 C 231.178 150.749,231.177 149.309,231.091 148.489 C 231.005 147.670,230.936 148.440,230.937 150.200 M237.820 147.973 C 238.424 148.566,240.496 148.657,240.691 148.100 C 240.814 147.751,240.351 147.600,239.153 147.600 C 238.089 147.600,237.584 147.741,237.820 147.973 M241.800 148.780 C 241.121 149.055,241.223 149.148,242.474 149.392 C 244.013 149.692,244.976 149.409,244.583 148.772 C 244.308 148.327,242.910 148.331,241.800 148.780 M245.600 149.982 C 245.600 150.192,246.232 150.482,247.004 150.627 C 247.777 150.772,248.507 151.050,248.628 151.245 C 248.931 151.735,252.000 151.694,252.000 151.200 C 252.000 150.779,251.323 150.668,249.500 150.788 C 248.735 150.838,248.400 150.668,248.400 150.230 C 248.400 149.777,248.008 149.600,247.000 149.600 C 246.230 149.600,245.600 149.772,245.600 149.982 M233.320 152.400 C 233.320 153.610,233.395 154.105,233.487 153.500 C 233.578 152.895,233.578 151.905,233.487 151.300 C 233.395 150.695,233.320 151.190,233.320 152.400 M253.026 151.958 C 252.773 152.367,253.701 152.800,254.833 152.800 C 255.255 152.800,255.600 152.530,255.600 152.200 C 255.600 151.538,253.413 151.333,253.026 151.958 M256.400 153.200 C 256.400 153.420,256.940 153.600,257.600 153.600 C 258.260 153.600,258.930 153.614,259.090 153.630 C 259.250 153.647,259.445 153.466,259.523 153.230 C 259.610 152.970,259.020 152.800,258.033 152.800 C 257.135 152.800,256.400 152.980,256.400 153.200 M260.695 153.870 C 259.553 154.179,260.329 154.800,261.857 154.800 C 262.806 154.800,263.213 154.637,263.102 154.300 C 262.924 153.760,261.826 153.563,260.695 153.870 M263.821 155.166 C 263.540 155.620,265.165 156.148,266.189 155.935 C 266.549 155.861,266.878 155.620,266.921 155.400 C 267.027 154.863,264.143 154.646,263.821 155.166 M232.680 158.166 C 232.526 159.908,232.473 161.407,232.564 161.498 C 232.811 161.744,233.306 156.636,233.121 155.758 C 233.033 155.341,232.835 156.425,232.680 158.166 M267.600 156.400 C 267.600 156.620,268.230 156.800,269.000 156.800 C 269.770 156.800,270.400 156.620,270.400 156.400 C 270.400 156.180,269.770 156.000,269.000 156.000 C 268.230 156.000,267.600 156.180,267.600 156.400 M271.878 157.056 C 271.393 157.540,272.049 158.000,273.224 158.000 C 274.003 158.000,274.400 157.797,274.400 157.400 C 274.400 156.795,272.410 156.523,271.878 157.056 M230.493 158.800 C 230.493 159.570,230.575 159.885,230.676 159.500 C 230.776 159.115,230.776 158.485,230.676 158.100 C 230.575 157.715,230.493 158.030,230.493 158.800 M232.509 164.400 C 232.509 165.390,232.587 165.795,232.682 165.300 C 232.778 164.805,232.778 163.995,232.682 163.500 C 232.587 163.005,232.509 163.410,232.509 164.400 M231.818 172.018 C 231.660 174.244,231.617 176.150,231.721 176.254 C 231.825 176.359,232.041 174.624,232.200 172.400 C 232.359 170.176,232.403 168.270,232.297 168.164 C 232.192 168.058,231.976 169.793,231.818 172.018 M276.359 179.456 C 274.071 181.669,270.260 185.248,267.889 187.409 C 265.519 189.571,263.731 191.491,263.916 191.676 C 264.102 191.862,268.832 191.966,274.427 191.907 L 284.600 191.800 284.728 190.900 C 284.820 190.251,284.653 189.998,284.128 189.994 C 283.563 189.989,283.522 189.910,283.946 189.642 C 284.524 189.276,284.586 189.551,281.608 179.216 L 280.518 175.431 276.359 179.456 M190.613 177.179 C 190.470 177.411,190.554 177.600,190.800 177.600 C 191.046 177.600,191.134 177.783,190.996 178.007 C 190.858 178.230,190.617 178.334,190.462 178.238 C 190.306 178.142,189.470 179.174,188.604 180.532 C 187.739 181.889,185.877 184.800,184.468 187.000 C 183.059 189.200,181.332 191.900,180.631 193.000 C 179.929 194.100,178.664 196.080,177.818 197.400 C 176.382 199.640,175.747 200.640,172.284 206.104 C 169.996 209.715,167.930 212.924,166.540 215.029 C 165.803 216.145,165.200 217.360,165.200 217.729 C 165.200 218.098,165.046 218.400,164.858 218.400 C 164.402 218.400,162.169 221.992,162.314 222.491 C 162.549 223.301,161.950 224.356,161.380 224.137 C 160.903 223.954,160.800 224.490,160.800 227.157 C 160.800 229.052,160.634 230.400,160.400 230.400 C 160.180 230.400,160.000 230.900,160.000 231.511 C 160.000 232.387,159.017 233.637,155.360 237.411 C 151.258 241.644,150.828 242.216,151.654 242.340 C 152.391 242.451,153.241 241.780,155.694 239.150 L 158.800 235.819 158.800 237.460 C 158.800 238.432,158.555 239.305,158.200 239.600 C 157.268 240.374,157.412 242.400,158.400 242.400 C 159.016 242.400,159.200 242.133,159.200 241.243 C 159.200 240.583,159.458 239.987,159.800 239.855 C 160.208 239.699,160.400 239.060,160.400 237.858 C 160.400 236.887,160.669 235.576,160.998 234.946 C 161.326 234.316,161.596 233.136,161.598 232.324 C 161.599 231.512,161.780 230.736,162.000 230.600 C 162.220 230.464,162.400 229.483,162.400 228.419 C 162.400 227.069,162.581 226.416,163.000 226.255 C 163.419 226.095,163.600 225.441,163.600 224.093 C 163.600 223.030,163.766 221.989,163.969 221.780 C 164.172 221.571,164.397 220.860,164.469 220.200 L 164.600 219.000 165.300 220.361 C 165.685 221.110,166.000 221.943,166.000 222.212 C 166.000 222.482,166.270 222.926,166.600 223.200 C 166.930 223.474,167.200 224.036,167.200 224.449 C 167.200 224.862,167.345 225.200,167.523 225.200 C 167.812 225.200,168.701 227.011,169.339 228.900 C 169.469 229.285,169.761 229.600,169.987 229.600 C 170.214 229.600,170.400 230.035,170.400 230.567 C 170.400 231.098,170.535 231.593,170.700 231.667 C 171.120 231.853,172.400 234.355,172.400 234.990 C 172.400 235.278,172.670 235.618,173.000 235.745 C 173.330 235.871,173.600 236.330,173.600 236.764 C 173.600 237.198,173.780 237.664,174.000 237.800 C 174.220 237.936,174.400 238.402,174.400 238.836 C 174.400 239.270,174.670 239.729,175.000 239.855 C 175.330 239.982,175.600 240.390,175.600 240.763 C 175.600 241.635,176.371 242.400,177.249 242.400 C 177.978 242.400,177.293 240.352,176.375 239.784 C 176.169 239.657,176.000 239.225,176.000 238.825 C 176.000 238.425,175.730 237.874,175.400 237.600 C 175.070 237.326,174.800 236.764,174.800 236.351 C 174.800 235.938,174.620 235.600,174.400 235.600 C 174.180 235.600,174.000 235.262,174.000 234.849 C 174.000 234.436,173.730 233.874,173.400 233.600 C 173.070 233.326,172.800 232.764,172.800 232.351 C 172.800 231.938,172.655 231.600,172.477 231.600 C 172.299 231.600,171.839 230.835,171.454 229.900 C 171.068 228.965,170.591 227.930,170.392 227.600 C 170.193 227.270,169.619 226.190,169.115 225.200 C 168.612 224.210,168.022 223.272,167.804 223.117 C 166.777 222.384,168.690 222.212,174.800 222.486 C 178.430 222.649,186.080 222.960,191.800 223.176 C 197.520 223.393,204.630 223.740,207.600 223.948 C 215.041 224.470,222.000 224.494,222.000 224.000 C 222.000 223.764,220.578 223.600,218.533 223.600 C 214.163 223.600,214.332 223.337,218.863 223.085 C 222.748 222.869,222.981 222.783,223.763 221.272 C 224.433 219.977,218.318 211.282,216.903 211.517 C 216.314 211.614,216.296 211.569,216.793 211.236 C 217.296 210.898,217.230 210.668,216.361 209.719 C 215.798 209.104,214.991 208.131,214.568 207.557 C 212.432 204.656,207.798 198.575,207.591 198.400 C 207.377 198.219,204.990 195.143,200.600 189.391 C 199.720 188.238,197.975 185.968,196.722 184.347 C 195.469 182.726,193.641 180.356,192.659 179.079 C 191.664 177.786,190.758 176.945,190.613 177.179 M229.473 197.860 C 229.062 198.272,229.145 206.319,229.564 206.577 C 229.968 206.828,230.384 198.385,229.991 197.893 C 229.857 197.725,229.624 197.710,229.473 197.860 M242.127 199.158 C 242.006 199.621,241.760 200.000,241.581 200.000 C 241.403 200.000,240.852 200.810,240.357 201.800 C 239.863 202.790,239.310 203.600,239.129 203.600 C 238.948 203.600,238.800 203.941,238.800 204.357 C 238.800 204.774,238.530 205.218,238.200 205.345 C 237.870 205.471,237.600 205.789,237.600 206.050 C 237.600 206.311,237.190 207.081,236.689 207.762 C 236.189 208.443,235.428 209.675,234.999 210.500 C 234.569 211.325,234.100 212.000,233.956 212.000 C 233.811 212.000,233.588 212.315,233.458 212.700 C 233.193 213.491,232.336 214.897,231.932 215.204 C 231.784 215.316,231.529 215.944,231.364 216.600 C 231.085 217.713,231.109 217.748,231.733 217.125 C 232.100 216.758,232.400 216.275,232.400 216.053 C 232.400 215.831,232.943 215.055,233.606 214.329 C 234.269 213.603,234.740 212.821,234.652 212.592 C 234.564 212.362,235.011 211.655,235.646 211.021 C 236.281 210.386,236.800 209.556,236.800 209.176 C 236.800 208.796,237.085 208.376,237.433 208.243 C 237.782 208.109,237.997 207.792,237.913 207.538 C 237.828 207.284,238.263 206.524,238.879 205.849 C 239.496 205.174,240.000 204.470,240.000 204.284 C 240.000 204.099,240.450 203.357,241.000 202.636 C 241.550 201.914,242.000 201.116,242.000 200.862 C 242.000 200.608,242.373 200.400,242.828 200.400 C 243.450 200.400,243.624 200.184,243.528 199.531 C 243.356 198.362,242.401 198.108,242.127 199.158 M243.856 200.678 C 243.361 201.172,243.607 202.400,244.200 202.400 C 244.530 202.400,244.800 202.051,244.800 201.624 C 244.800 200.789,244.273 200.261,243.856 200.678 M244.800 203.600 C 244.800 204.040,244.980 204.400,245.200 204.400 C 245.420 204.400,245.600 204.040,245.600 203.600 C 245.600 203.160,245.420 202.800,245.200 202.800 C 244.980 202.800,244.800 203.160,244.800 203.600 M245.762 205.261 C 245.606 205.514,245.775 205.939,246.139 206.205 C 246.503 206.471,246.800 207.073,246.800 207.544 C 246.800 208.015,246.968 208.400,247.173 208.400 C 247.379 208.400,247.604 208.893,247.673 209.497 C 247.819 210.761,249.195 211.329,249.207 210.129 C 249.229 207.937,246.496 204.074,245.762 205.261 M228.705 211.200 C 228.230 212.813,228.320 214.379,228.837 213.491 C 229.064 213.102,229.193 212.202,229.125 211.491 C 229.005 210.254,228.988 210.242,228.705 211.200 M248.992 211.677 C 248.617 212.655,248.929 214.515,249.500 214.702 C 250.098 214.899,250.187 212.515,249.615 211.611 C 249.294 211.103,249.209 211.112,248.992 211.677 M290.662 214.331 C 290.298 214.734,290.000 215.274,290.000 215.531 C 290.000 215.789,289.841 216.000,289.647 216.000 C 289.452 216.000,289.184 216.315,289.051 216.700 C 288.918 217.085,288.449 217.940,288.009 218.600 C 287.569 219.260,287.085 220.070,286.934 220.400 C 286.782 220.730,286.555 221.090,286.429 221.200 C 286.115 221.474,285.398 222.678,284.344 224.700 C 283.857 225.635,283.310 226.400,283.129 226.400 C 282.948 226.400,282.800 226.577,282.800 226.793 C 282.800 227.009,282.070 228.379,281.177 229.837 C 280.285 231.295,279.680 232.603,279.832 232.744 C 279.985 232.885,280.191 232.772,280.290 232.493 C 280.390 232.214,280.725 231.732,281.036 231.421 C 281.346 231.111,281.600 230.596,281.600 230.278 C 281.600 229.959,281.853 229.488,282.163 229.231 C 282.473 228.974,283.026 228.186,283.392 227.482 C 284.279 225.775,284.840 224.822,285.800 223.390 C 286.967 221.650,287.499 220.756,288.226 219.318 C 288.582 218.614,289.127 217.826,289.437 217.569 C 289.747 217.312,290.000 216.876,290.000 216.600 C 290.000 216.324,290.251 215.890,290.557 215.636 C 291.028 215.244,291.729 213.600,291.425 213.600 C 291.369 213.600,291.026 213.929,290.662 214.331 M250.000 216.776 C 250.000 218.341,250.543 219.253,250.905 218.298 C 251.185 217.561,250.765 215.200,250.355 215.200 C 250.160 215.200,250.000 215.909,250.000 216.776 M166.400 219.800 C 166.400 220.130,166.220 220.400,166.000 220.400 C 165.780 220.400,165.600 220.130,165.600 219.800 C 165.600 219.470,165.780 219.200,166.000 219.200 C 166.220 219.200,166.400 219.470,166.400 219.800 M251.003 220.387 C 250.731 221.623,250.971 222.400,251.624 222.400 C 252.109 222.400,252.117 219.720,251.633 219.420 C 251.430 219.295,251.147 219.730,251.003 220.387 M179.400 221.200 C 179.560 221.459,177.772 221.598,174.324 221.594 C 170.739 221.590,169.196 221.461,169.600 221.200 C 170.399 220.684,179.081 220.684,179.400 221.200 M202.400 222.334 C 202.400 222.780,198.256 222.842,196.000 222.429 C 194.494 222.154,194.869 222.092,198.300 222.050 C 200.555 222.023,202.400 222.150,202.400 222.334 M252.211 223.671 C 251.826 224.612,252.104 226.106,252.700 226.302 C 253.267 226.489,253.333 225.060,252.815 223.800 C 252.522 223.088,252.456 223.074,252.211 223.671 M253.200 228.400 C 253.200 229.280,253.380 230.000,253.600 230.000 C 253.820 230.000,254.000 229.280,254.000 228.400 C 254.000 227.520,253.820 226.800,253.600 226.800 C 253.380 226.800,253.200 227.520,253.200 228.400 M254.169 231.783 C 253.866 232.988,254.229 234.153,254.797 233.802 C 255.312 233.483,255.324 231.324,254.812 231.007 C 254.598 230.875,254.309 231.224,254.169 231.783 M277.971 235.034 C 276.800 237.245,276.440 237.859,275.400 239.410 C 274.155 241.267,273.617 242.149,273.332 242.800 C 273.188 243.130,272.694 243.936,272.235 244.592 C 271.270 245.969,270.550 247.146,270.151 248.000 C 269.996 248.330,269.494 249.137,269.035 249.794 C 267.870 251.461,267.200 252.794,267.200 253.446 C 267.200 253.751,267.030 254.000,266.822 254.000 C 266.449 254.000,265.462 255.539,264.963 256.900 C 264.822 257.285,264.548 257.600,264.353 257.600 C 264.159 257.600,264.000 257.960,264.000 258.400 C 264.000 258.840,264.168 259.200,264.373 259.200 C 264.578 259.200,264.860 258.840,265.000 258.400 C 265.140 257.960,265.422 257.600,265.627 257.600 C 265.832 257.600,266.000 257.150,266.000 256.600 C 266.000 255.978,266.227 255.600,266.600 255.600 C 266.933 255.600,267.200 255.244,267.200 254.800 C 267.200 254.360,267.380 254.000,267.600 254.000 C 267.820 254.000,268.000 253.820,268.000 253.600 C 268.000 253.006,269.516 251.600,270.157 251.600 C 270.464 251.600,270.827 251.305,270.966 250.946 C 271.196 250.345,271.280 250.348,271.980 250.982 C 272.900 251.815,274.400 251.476,274.400 250.435 C 274.400 249.490,275.649 248.400,276.731 248.400 C 277.209 248.400,277.600 248.220,277.600 248.000 C 277.600 247.780,277.938 247.600,278.351 247.600 C 278.764 247.600,279.326 247.330,279.600 247.000 C 279.874 246.670,280.298 246.400,280.543 246.400 C 280.966 246.400,284.720 244.717,286.000 243.953 C 286.330 243.756,286.870 243.488,287.200 243.357 C 287.530 243.226,288.672 242.688,289.737 242.160 C 290.802 241.632,291.905 241.200,292.188 241.200 C 292.471 241.200,292.926 240.930,293.200 240.600 C 293.474 240.270,294.036 240.000,294.449 240.000 C 294.862 240.000,295.200 239.820,295.200 239.600 C 295.200 239.380,295.566 239.200,296.013 239.200 C 296.459 239.200,296.928 238.931,297.054 238.602 C 297.181 238.274,297.445 238.104,297.642 238.226 C 297.839 238.348,298.000 238.075,298.000 237.620 C 298.000 236.959,297.860 236.867,297.300 237.161 C 296.915 237.363,295.520 238.015,294.200 238.609 C 292.880 239.203,291.530 239.850,291.200 240.047 C 290.870 240.244,290.330 240.510,290.000 240.638 C 289.422 240.862,284.762 243.042,280.594 245.039 C 279.491 245.568,278.366 246.000,278.094 246.000 C 277.822 246.000,277.600 246.145,277.600 246.323 C 277.600 246.501,276.835 246.967,275.900 247.358 C 274.965 247.750,273.320 248.509,272.243 249.045 C 270.181 250.073,269.498 250.014,270.326 248.881 C 270.599 248.506,270.929 247.885,271.058 247.500 C 271.188 247.115,271.431 246.800,271.600 246.800 C 271.769 246.800,272.016 246.485,272.149 246.100 C 272.282 245.715,272.751 244.860,273.191 244.200 C 273.631 243.540,274.115 242.730,274.266 242.400 C 274.418 242.070,274.645 241.710,274.771 241.600 C 275.085 241.326,275.802 240.122,276.856 238.100 C 277.343 237.165,277.890 236.400,278.071 236.400 C 278.252 236.400,278.400 236.059,278.400 235.643 C 278.400 235.226,278.670 234.782,279.000 234.655 C 279.330 234.529,279.600 234.149,279.600 233.813 C 279.600 232.693,278.953 233.178,277.971 235.034 M255.494 234.640 C 255.055 235.078,255.139 237.515,255.603 237.802 C 255.824 237.939,256.105 237.791,256.227 237.474 C 256.515 236.724,255.876 234.257,255.494 234.640 M256.244 239.368 C 255.975 240.437,256.287 241.600,256.843 241.600 C 257.039 241.600,257.200 240.880,257.200 240.000 C 257.200 238.233,256.624 237.852,256.244 239.368 M257.473 242.661 C 256.928 243.206,257.185 245.200,257.800 245.200 C 258.157 245.200,258.398 244.836,258.394 244.300 C 258.387 243.225,257.855 242.279,257.473 242.661 M298.841 243.400 C 298.834 244.060,299.086 245.050,299.400 245.600 C 300.105 246.833,300.106 246.708,299.409 244.200 C 298.962 242.588,298.852 242.433,298.841 243.400 M258.400 246.200 C 258.400 246.716,257.093 246.800,249.037 246.800 C 239.872 246.800,239.679 246.817,239.884 247.600 C 240.085 248.369,240.430 248.400,248.647 248.400 C 253.351 248.400,257.200 248.463,257.200 248.540 C 257.200 248.618,256.750 249.527,256.200 250.562 C 255.650 251.596,255.200 252.681,255.200 252.972 C 255.200 253.264,254.930 253.726,254.600 254.000 C 254.270 254.274,254.000 254.926,254.000 255.449 C 254.000 255.972,253.832 256.400,253.627 256.400 C 253.422 256.400,253.132 256.784,252.983 257.254 C 252.361 259.213,248.401 262.678,247.787 261.800 C 247.479 261.360,247.041 260.783,246.814 260.517 C 246.586 260.251,246.400 259.937,246.400 259.818 C 246.400 259.618,243.311 255.214,242.401 254.117 C 242.180 253.851,242.000 253.457,242.000 253.240 C 242.000 253.024,241.811 252.730,241.579 252.587 C 241.348 252.444,241.438 252.996,241.779 253.813 C 242.121 254.629,242.400 255.720,242.400 256.236 C 242.400 256.906,242.572 257.109,243.000 256.945 C 243.330 256.818,243.600 256.899,243.600 257.124 C 243.600 257.349,243.417 257.594,243.193 257.669 C 242.933 257.756,243.014 258.600,243.417 260.002 C 245.179 266.125,246.441 266.518,250.600 262.238 C 253.191 259.572,255.421 258.000,256.612 258.000 C 256.882 258.000,257.326 257.730,257.600 257.400 C 257.874 257.070,258.421 256.800,258.816 256.800 C 259.210 256.800,259.638 256.575,259.767 256.300 C 259.953 255.900,260.047 255.900,260.233 256.300 C 260.675 257.247,261.600 256.839,261.594 255.700 C 261.585 254.057,261.061 253.403,260.396 254.205 C 259.812 254.908,256.938 256.400,256.168 256.400 C 255.903 256.400,255.578 256.681,255.446 257.025 C 255.314 257.369,255.013 257.531,254.777 257.386 C 254.490 257.209,254.556 256.891,254.974 256.429 C 255.318 256.048,255.600 255.560,255.600 255.343 C 255.600 255.127,256.050 254.017,256.600 252.877 C 257.150 251.737,257.600 250.555,257.600 250.251 C 257.600 249.947,257.948 249.451,258.374 249.149 C 259.112 248.626,259.348 247.853,259.246 246.300 C 259.190 245.448,258.400 245.355,258.400 246.200 M300.006 248.233 C 300.009 248.655,300.195 249.270,300.418 249.600 C 300.715 250.038,300.752 249.876,300.556 249.000 C 300.227 247.529,299.998 247.210,300.006 248.233 M273.600 249.800 C 273.600 250.133,273.244 250.400,272.800 250.400 C 271.915 250.400,271.716 249.781,272.500 249.465 C 273.370 249.114,273.600 249.184,273.600 249.800 M259.600 250.953 C 259.600 251.723,259.780 252.464,260.000 252.600 C 260.238 252.747,260.400 252.279,260.400 251.447 C 260.400 250.677,260.220 249.936,260.000 249.800 C 259.762 249.653,259.600 250.121,259.600 250.953 M302.018 256.254 C 302.008 256.724,302.269 257.624,302.598 258.254 C 303.354 259.705,303.361 259.081,302.612 257.000 C 302.239 255.965,302.029 255.702,302.018 256.254 M133.959 257.701 C 134.399 258.891,136.822 259.081,137.798 258.002 C 138.200 257.558,138.405 257.072,138.255 256.922 C 138.105 256.771,137.703 257.045,137.363 257.531 C 136.730 258.435,135.786 258.334,136.145 257.400 C 136.284 257.037,135.938 256.880,135.000 256.880 C 133.812 256.880,133.691 256.976,133.959 257.701 M154.080 257.280 C 153.816 257.544,153.600 258.624,153.600 259.680 L 153.600 261.600 151.400 261.600 C 150.190 261.600,149.200 261.757,149.200 261.950 C 149.200 262.351,151.524 262.894,151.995 262.603 C 152.420 262.340,153.162 264.375,153.072 265.560 C 153.033 266.087,153.225 266.597,153.500 266.693 C 153.861 266.818,154.000 266.244,154.000 264.621 C 154.000 262.993,154.165 262.311,154.600 262.145 C 155.019 261.984,155.200 261.331,155.200 259.981 C 155.200 258.917,155.380 257.936,155.600 257.800 C 155.820 257.664,156.000 257.383,156.000 257.176 C 156.000 256.638,154.649 256.711,154.080 257.280 M184.000 257.066 C 184.000 257.662,185.377 260.400,185.677 260.400 C 185.855 260.400,186.000 260.611,186.000 260.869 C 186.000 261.747,187.398 264.378,187.800 264.256 C 188.581 264.018,188.434 262.837,187.424 261.237 C 186.861 260.346,186.400 259.426,186.400 259.194 C 186.400 258.451,185.127 256.800,184.554 256.800 C 184.249 256.800,184.000 256.920,184.000 257.066 M254.400 258.024 C 254.400 258.231,254.130 258.400,253.800 258.400 C 253.181 258.400,253.005 257.928,253.456 257.478 C 253.775 257.158,254.400 257.519,254.400 258.024 M261.672 259.027 C 261.784 260.408,261.934 260.615,262.900 260.727 C 264.322 260.890,264.289 260.394,262.772 258.770 L 261.543 257.454 261.672 259.027 M138.607 258.788 C 138.310 259.269,140.169 259.774,141.024 259.446 C 141.369 259.314,141.539 259.024,141.402 258.803 C 141.083 258.288,138.924 258.276,138.607 258.788 M142.000 260.000 C 142.000 260.220,142.720 260.400,143.600 260.400 C 144.480 260.400,145.200 260.220,145.200 260.000 C 145.200 259.780,144.480 259.600,143.600 259.600 C 142.720 259.600,142.000 259.780,142.000 260.000 M146.498 260.658 C 145.652 261.012,146.376 261.600,147.657 261.600 C 148.446 261.600,148.809 261.426,148.702 261.100 C 148.524 260.561,147.312 260.318,146.498 260.658 M303.228 261.076 C 303.213 261.558,303.380 262.064,303.600 262.200 C 304.073 262.492,304.073 262.101,303.600 261.000 C 303.269 260.229,303.255 260.231,303.228 261.076 M248.329 263.733 C 248.417 264.183,248.189 264.400,247.629 264.400 C 246.715 264.400,246.689 264.355,247.049 263.416 C 247.354 262.622,248.152 262.820,248.329 263.733 M205.223 265.146 C 204.491 266.912,204.980 267.994,206.527 268.028 C 207.601 268.052,207.675 268.110,207.000 268.400 C 205.823 268.906,207.331 268.919,209.869 268.424 C 211.825 268.043,217.488 267.128,222.600 266.367 C 224.140 266.138,226.930 265.696,228.800 265.384 C 230.670 265.073,233.190 264.674,234.400 264.499 C 235.783 264.299,230.864 264.138,221.159 264.065 L 205.718 263.950 205.223 265.146 M133.284 267.000 C 133.299 269.568,133.324 269.651,133.590 268.004 C 133.749 267.016,133.742 265.756,133.574 265.204 C 133.369 264.531,133.274 265.123,133.284 267.000 M227.000 265.200 C 226.705 265.678,225.312 265.678,224.200 265.200 C 223.600 264.942,223.881 264.849,225.324 264.828 C 226.510 264.811,227.153 264.953,227.000 265.200 M249.600 265.157 C 249.600 265.606,251.507 266.105,252.018 265.789 C 252.835 265.284,252.336 264.800,251.000 264.800 C 250.230 264.800,249.600 264.960,249.600 265.157 M220.200 266.000 C 220.353 266.248,219.715 266.382,218.524 266.353 C 216.816 266.311,216.735 266.271,217.800 266.000 C 219.550 265.555,219.925 265.555,220.200 266.000 M253.495 265.877 C 252.368 266.171,253.121 266.800,254.600 266.800 C 256.076 266.800,256.771 266.228,255.765 265.842 C 255.086 265.581,254.599 265.589,253.495 265.877 M213.800 267.200 C 213.664 267.420,213.023 267.600,212.376 267.600 C 211.729 267.600,211.200 267.420,211.200 267.200 C 211.200 266.980,211.841 266.800,212.624 266.800 C 213.471 266.800,213.947 266.962,213.800 267.200 M257.005 267.192 C 256.869 267.411,257.481 267.699,258.390 267.845 C 259.285 267.988,260.114 268.261,260.232 268.453 C 260.532 268.938,263.600 268.890,263.600 268.400 C 263.600 268.180,262.809 268.000,261.843 268.000 C 260.650 268.000,260.012 267.807,259.855 267.400 C 259.598 266.729,257.390 266.568,257.005 267.192 M152.294 267.840 C 151.842 268.291,151.946 271.200,152.413 271.200 C 152.639 271.200,152.920 270.952,153.037 270.649 C 153.318 269.917,152.669 267.465,152.294 267.840 M203.417 267.972 C 203.291 268.177,203.370 268.458,203.593 268.596 C 203.817 268.734,204.000 269.816,204.000 271.000 C 204.000 272.199,204.205 273.280,204.463 273.439 C 204.802 273.649,204.854 273.203,204.658 271.768 C 204.420 270.035,204.493 269.733,205.295 269.122 L 206.200 268.432 205.300 268.663 C 204.643 268.831,204.400 268.719,204.400 268.247 C 204.400 267.544,203.787 267.373,203.417 267.972 M305.200 269.310 C 305.200 269.883,305.387 270.468,305.616 270.610 C 305.889 270.779,305.938 270.477,305.760 269.734 C 305.392 268.201,305.200 268.056,305.200 269.310 M202.394 269.407 C 202.028 269.848,201.999 270.159,202.297 270.457 C 202.595 270.755,202.802 270.622,202.997 270.010 C 203.351 268.894,203.061 268.604,202.394 269.407 M264.898 269.058 C 264.052 269.412,264.776 270.000,266.057 270.000 C 266.846 270.000,267.209 269.826,267.102 269.500 C 266.924 268.961,265.712 268.718,264.898 269.058 M244.553 273.800 C 244.553 276.440,244.618 277.468,244.697 276.084 C 244.775 274.701,244.774 272.541,244.695 271.284 C 244.616 270.028,244.552 271.160,244.553 273.800 M267.832 270.349 C 267.592 270.737,270.330 271.291,270.862 270.961 C 271.048 270.847,271.200 270.583,271.200 270.376 C 271.200 269.902,268.123 269.877,267.832 270.349 M272.494 271.086 C 271.229 271.325,271.792 272.000,273.257 272.000 C 274.013 272.000,274.407 271.822,274.308 271.525 C 274.119 270.957,273.705 270.857,272.494 271.086 M151.056 273.218 C 150.672 275.138,150.739 275.600,151.400 275.600 C 151.812 275.600,151.998 275.192,151.994 274.300 C 151.985 272.353,151.371 271.645,151.056 273.218 M275.426 272.358 C 275.156 272.794,276.123 273.200,277.433 273.200 C 278.026 273.200,278.400 272.968,278.400 272.600 C 278.400 271.933,275.818 271.723,275.426 272.358 M179.700 273.700 C 179.926 274.380,181.910 274.412,182.168 273.740 C 182.318 273.349,181.983 273.200,180.954 273.200 C 179.995 273.200,179.587 273.363,179.700 273.700 M279.200 273.600 C 279.200 273.820,279.830 274.000,280.600 274.000 C 281.370 274.000,282.000 273.820,282.000 273.600 C 282.000 273.380,281.370 273.200,280.600 273.200 C 279.830 273.200,279.200 273.380,279.200 273.600 M173.467 274.267 C 172.820 274.913,173.333 275.198,175.100 275.172 C 177.805 275.132,179.006 274.621,177.231 274.266 C 175.526 273.925,173.808 273.925,173.467 274.267 M283.298 274.257 C 282.398 274.635,283.212 275.200,284.657 275.200 C 285.606 275.200,286.013 275.036,285.902 274.700 C 285.729 274.171,284.143 273.901,283.298 274.257 M200.000 274.708 C 198.802 275.106,198.311 275.697,198.881 276.059 C 199.275 276.309,199.243 276.389,198.747 276.394 C 198.183 276.399,194.800 280.971,194.800 281.728 C 194.800 281.878,195.520 282.000,196.400 282.000 C 197.840 282.000,198.000 281.900,198.000 281.000 C 198.000 280.450,198.168 280.000,198.373 280.000 C 198.578 280.000,198.863 279.595,199.005 279.100 C 199.148 278.605,199.620 277.415,200.055 276.456 C 200.912 274.566,200.907 274.408,200.000 274.708 M167.200 275.800 C 167.200 276.462,167.789 276.523,170.535 276.147 C 173.076 275.799,172.470 275.200,169.576 275.200 C 167.731 275.200,167.200 275.334,167.200 275.800 M286.630 275.551 C 286.381 275.955,288.700 276.509,289.241 276.175 C 289.438 276.053,289.600 275.783,289.600 275.576 C 289.600 275.101,286.923 275.078,286.630 275.551 M161.700 276.265 C 161.425 276.376,161.200 276.632,161.200 276.833 C 161.200 277.333,165.490 277.301,165.800 276.800 C 165.947 276.563,165.482 276.400,164.656 276.400 C 163.891 276.400,163.026 276.324,162.733 276.232 C 162.440 276.139,161.975 276.154,161.700 276.265 M291.300 276.285 C 289.877 276.555,290.253 277.200,291.833 277.200 C 292.762 277.200,293.211 277.033,293.108 276.725 C 292.919 276.158,292.505 276.057,291.300 276.285 M307.241 277.200 C 307.234 277.750,307.486 278.650,307.800 279.200 C 308.524 280.466,308.527 280.243,307.821 278.000 C 307.418 276.723,307.250 276.490,307.241 277.200 M150.041 277.726 C 149.355 279.478,149.471 279.726,150.850 279.450 C 151.537 279.313,152.347 279.200,152.650 279.200 C 152.953 279.200,153.200 279.020,153.200 278.800 C 153.200 278.580,152.744 278.400,152.187 278.400 C 151.506 278.400,151.061 278.105,150.828 277.500 C 150.486 276.609,150.478 276.611,150.041 277.726 M155.067 277.467 C 154.168 278.365,156.002 278.700,158.782 278.144 C 159.685 277.963,159.907 277.787,159.532 277.550 C 158.900 277.149,155.449 277.085,155.067 277.467 M294.066 277.540 C 293.664 277.803,293.763 277.951,294.466 278.139 C 296.028 278.557,297.281 278.444,297.103 277.900 C 296.905 277.299,294.815 277.051,294.066 277.540 M198.400 278.424 C 198.400 278.877,198.220 279.136,198.000 279.000 C 197.780 278.864,197.600 278.493,197.600 278.176 C 197.600 277.859,197.780 277.600,198.000 277.600 C 198.220 277.600,198.400 277.971,198.400 278.424 M205.240 278.900 C 205.218 279.725,205.380 280.400,205.600 280.400 C 206.058 280.400,206.058 279.830,205.600 278.400 C 205.314 277.508,205.275 277.561,205.240 278.900 M298.000 278.757 C 298.000 279.209,299.909 279.704,300.425 279.385 C 300.638 279.253,300.709 278.977,300.583 278.772 C 300.289 278.296,298.000 278.282,298.000 278.757 M301.895 279.477 C 300.691 279.791,301.567 280.400,303.224 280.400 C 304.820 280.400,305.326 279.887,304.167 279.443 C 303.486 279.181,303.000 279.189,301.895 279.477 M305.400 280.800 C 305.264 281.020,305.298 281.202,305.476 281.205 C 305.654 281.208,306.205 281.319,306.700 281.452 C 307.362 281.629,307.600 281.522,307.600 281.047 C 307.600 280.325,305.817 280.125,305.400 280.800 M137.200 295.000 C 137.200 295.367,137.393 295.602,137.630 295.523 C 137.867 295.445,138.060 295.209,138.060 295.000 C 138.060 294.791,137.867 294.555,137.630 294.477 C 137.393 294.398,137.200 294.633,137.200 295.000 M195.589 297.532 C 194.814 298.494,194.059 299.656,193.726 300.400 C 193.477 300.956,190.074 306.636,189.173 308.000 C 188.955 308.330,188.671 308.915,188.542 309.300 C 188.412 309.685,188.169 310.000,188.000 310.000 C 187.831 310.000,187.584 310.315,187.451 310.700 C 187.318 311.085,186.849 311.940,186.409 312.600 C 185.969 313.260,185.481 314.069,185.324 314.398 C 185.167 314.727,184.175 316.389,183.120 318.091 C 181.130 321.299,180.992 321.600,181.509 321.600 C 181.679 321.600,182.172 320.925,182.605 320.100 C 183.038 319.275,183.619 318.456,183.896 318.280 C 184.173 318.104,184.400 317.609,184.400 317.180 C 184.400 316.751,184.559 316.400,184.753 316.400 C 184.948 316.400,185.212 316.085,185.342 315.700 C 185.611 314.899,186.370 313.685,187.100 312.888 C 187.375 312.588,187.600 312.086,187.600 311.771 C 187.600 311.457,187.737 311.200,187.905 311.200 C 188.211 311.200,188.933 310.015,189.429 308.700 C 189.574 308.315,189.852 308.000,190.047 308.000 C 190.241 308.000,190.400 307.743,190.400 307.429 C 190.400 307.114,190.625 306.616,190.900 306.321 C 191.363 305.825,192.186 304.457,193.332 302.279 C 193.589 301.789,194.205 300.823,194.700 300.133 C 195.195 299.442,195.600 298.738,195.600 298.570 C 195.600 298.401,195.898 297.934,196.262 297.531 C 196.626 297.129,196.756 296.800,196.551 296.800 C 196.346 296.800,195.913 297.129,195.589 297.532 M290.585 299.242 C 289.493 300.364,286.800 302.835,284.600 304.731 C 282.400 306.627,279.970 308.767,279.200 309.486 C 278.430 310.205,277.665 310.795,277.500 310.797 C 277.335 310.798,277.200 311.160,277.200 311.600 C 277.200 312.379,277.467 312.400,287.232 312.400 L 297.264 312.400 296.988 311.100 C 296.374 308.212,293.460 298.592,293.163 298.474 C 292.988 298.405,292.944 298.090,293.065 297.774 C 293.491 296.664,292.550 297.221,290.585 299.242 M208.400 300.533 C 208.400 301.340,208.576 302.000,208.790 302.000 C 209.014 302.000,209.075 301.447,208.933 300.700 C 208.586 298.877,208.400 298.819,208.400 300.533 M288.348 302.973 C 287.833 303.507,287.335 303.869,287.242 303.775 C 287.003 303.536,288.442 302.000,288.904 302.000 C 289.113 302.000,288.863 302.438,288.348 302.973 M94.200 316.091 C 89.580 323.385,85.035 330.524,84.100 331.957 C 83.165 333.390,82.400 334.796,82.400 335.081 C 82.400 335.367,82.220 335.600,82.000 335.600 C 81.780 335.600,81.600 335.762,81.600 335.961 C 81.600 336.886,84.566 337.200,93.360 337.210 C 98.442 337.215,103.320 337.405,104.200 337.632 C 105.080 337.859,110.615 338.150,116.500 338.278 C 127.847 338.525,128.290 338.618,126.700 340.401 C 126.279 340.873,126.304 340.883,126.857 340.467 C 127.218 340.196,127.735 339.439,128.005 338.787 C 128.276 338.134,128.741 337.600,129.040 337.600 C 129.598 337.600,129.177 339.081,128.273 340.300 C 128.039 340.616,128.053 340.800,128.311 340.800 C 128.772 340.800,130.400 337.865,130.400 337.034 C 130.400 336.737,130.760 336.399,131.200 336.284 C 131.661 336.163,132.000 335.738,132.000 335.280 C 132.000 334.843,132.270 334.382,132.600 334.255 C 132.930 334.129,133.200 333.749,133.200 333.413 C 133.200 333.076,133.380 332.800,133.600 332.800 C 133.820 332.800,134.000 332.459,134.000 332.043 C 134.000 331.626,134.270 331.182,134.600 331.055 C 134.930 330.929,135.200 330.559,135.200 330.233 C 135.200 329.908,135.650 329.156,136.200 328.562 C 136.750 327.969,137.200 327.169,137.200 326.784 C 137.200 326.400,137.470 325.982,137.800 325.855 C 138.130 325.729,138.400 325.349,138.400 325.013 C 138.400 324.676,138.580 324.400,138.800 324.400 C 139.020 324.400,139.200 324.152,139.200 323.849 C 139.200 323.546,139.470 323.074,139.800 322.800 C 140.130 322.526,140.400 322.063,140.400 321.772 C 140.400 321.480,140.850 320.756,141.400 320.162 C 141.950 319.569,142.400 318.749,142.400 318.342 C 142.400 317.934,142.670 317.600,143.000 317.600 C 143.646 317.600,143.741 317.234,143.357 316.233 C 143.032 315.385,142.407 315.427,142.371 316.300 C 142.355 316.685,141.997 317.540,141.575 318.200 C 141.154 318.860,140.685 319.670,140.534 320.000 C 140.383 320.330,139.885 321.140,139.428 321.800 C 138.049 323.793,137.588 324.566,137.342 325.300 C 137.212 325.685,136.989 326.000,136.844 326.000 C 136.700 326.000,136.228 326.675,135.795 327.500 C 135.362 328.325,134.893 329.090,134.754 329.200 C 134.614 329.310,134.161 330.030,133.746 330.800 C 133.331 331.570,132.602 332.650,132.126 333.200 C 131.650 333.750,130.917 334.632,130.498 335.160 C 129.308 336.658,128.120 336.052,125.687 332.706 C 124.525 331.108,122.581 328.540,121.367 327.000 C 120.153 325.460,118.149 322.850,116.914 321.200 C 115.680 319.550,114.563 318.110,114.432 318.000 C 114.302 317.890,113.698 317.132,113.089 316.316 C 112.386 315.372,111.768 314.914,111.392 315.059 C 111.066 315.183,110.800 315.076,110.800 314.819 C 110.800 314.563,110.980 314.464,111.200 314.600 C 112.100 315.156,110.286 312.081,109.194 311.200 C 109.058 311.090,108.165 309.956,107.210 308.679 C 106.117 307.220,105.366 306.531,105.186 306.822 C 104.979 307.157,104.824 307.163,104.626 306.843 C 104.476 306.599,104.543 306.400,104.776 306.400 C 105.465 306.400,105.247 305.889,103.885 304.315 L 102.600 302.830 94.200 316.091 M209.206 305.700 C 209.209 306.855,209.471 308.520,209.788 309.400 C 210.105 310.280,210.373 312.114,210.382 313.476 C 210.392 314.838,210.580 316.064,210.800 316.200 C 211.020 316.336,211.200 317.612,211.200 319.036 C 211.200 320.461,211.470 322.272,211.800 323.062 C 212.130 323.851,212.400 325.658,212.400 327.075 C 212.400 328.493,212.570 329.971,212.778 330.359 C 212.986 330.748,213.200 331.913,213.254 332.949 L 213.351 334.833 223.276 334.779 C 228.734 334.749,233.200 334.639,233.200 334.535 C 233.200 333.794,231.042 331.679,230.471 331.862 C 229.938 332.031,229.914 331.994,230.356 331.679 C 230.800 331.363,230.311 330.524,227.943 327.542 C 226.310 325.484,224.170 322.720,223.188 321.400 C 222.206 320.080,221.300 318.910,221.174 318.800 C 221.049 318.690,220.159 317.520,219.196 316.200 C 216.677 312.746,215.584 311.631,214.954 311.873 C 214.649 311.990,214.400 311.876,214.400 311.619 C 214.400 311.363,214.580 311.264,214.800 311.400 C 215.745 311.984,215.040 310.778,212.807 307.989 C 211.490 306.345,210.410 304.854,210.407 304.676 C 210.403 304.498,210.222 304.463,210.005 304.597 C 209.778 304.737,209.711 304.577,209.847 304.221 C 209.978 303.879,209.886 303.600,209.643 303.600 C 209.375 303.600,209.202 304.428,209.206 305.700 M285.292 306.000 C 284.820 306.440,284.246 306.800,284.017 306.800 C 283.390 306.800,284.910 305.272,285.575 305.233 C 285.969 305.211,285.880 305.452,285.292 306.000 M281.055 309.455 C 280.475 310.035,280.000 310.636,280.000 310.790 C 280.000 311.192,277.943 312.077,277.663 311.796 C 277.376 311.509,279.792 309.200,280.378 309.200 C 280.610 309.200,280.800 309.020,280.800 308.800 C 280.800 308.580,281.095 308.400,281.455 308.400 C 281.959 308.400,281.868 308.641,281.055 309.455 M211.600 310.400 C 211.600 310.814,211.420 311.264,211.200 311.400 C 210.966 311.545,210.800 311.130,210.800 310.400 C 210.800 309.670,210.966 309.255,211.200 309.400 C 211.420 309.536,211.600 309.986,211.600 310.400 M212.366 317.900 C 212.331 319.390,212.329 319.393,211.983 318.234 C 211.666 317.175,211.768 316.400,212.224 316.400 C 212.321 316.400,212.385 317.075,212.366 317.900 M143.491 318.242 C 143.074 318.659,143.131 321.200,143.557 321.200 C 143.754 321.200,144.012 320.945,144.132 320.634 C 144.415 319.896,143.870 317.863,143.491 318.242 M255.612 319.767 C 255.396 320.335,255.080 320.802,254.910 320.805 C 254.739 320.807,254.256 321.527,253.836 322.405 C 253.415 323.282,252.920 324.000,252.736 324.000 C 252.551 324.000,252.400 324.360,252.400 324.800 C 252.400 325.240,252.219 325.600,251.999 325.600 C 251.778 325.600,251.286 326.320,250.904 327.200 C 250.523 328.080,250.086 328.800,249.934 328.800 C 249.781 328.800,249.252 329.610,248.757 330.600 C 248.263 331.590,247.731 332.400,247.576 332.400 C 247.420 332.400,247.188 332.715,247.058 333.100 C 246.929 333.485,246.599 334.106,246.326 334.481 C 246.052 334.855,245.965 335.298,246.132 335.465 C 246.439 335.773,248.359 333.705,248.386 333.038 C 248.394 332.839,248.850 332.086,249.400 331.364 C 249.950 330.643,250.400 329.883,250.400 329.676 C 250.400 329.468,250.678 329.067,251.018 328.785 C 251.358 328.503,251.544 328.031,251.431 327.736 C 251.318 327.441,251.468 327.200,251.766 327.200 C 252.063 327.200,252.421 326.885,252.560 326.500 C 252.863 325.660,253.489 324.616,254.700 322.930 C 255.195 322.241,255.600 321.479,255.600 321.238 C 255.600 320.997,255.973 320.800,256.428 320.800 C 257.050 320.800,257.224 320.584,257.128 319.931 C 256.942 318.666,256.067 318.571,255.612 319.767 M257.362 321.355 C 257.101 322.035,257.451 322.800,258.024 322.800 C 258.528 322.800,258.506 321.313,257.997 320.998 C 257.776 320.861,257.490 321.022,257.362 321.355 M144.231 323.018 C 143.961 324.093,144.196 324.800,144.824 324.800 C 145.031 324.800,145.200 324.170,145.200 323.400 C 145.200 321.772,144.603 321.537,144.231 323.018 M179.647 323.791 C 179.155 324.776,178.584 325.687,178.376 325.815 C 177.887 326.117,177.890 326.800,178.381 326.800 C 178.591 326.800,179.076 326.125,179.460 325.300 C 179.843 324.475,180.392 323.656,180.678 323.480 C 180.965 323.304,181.200 322.899,181.200 322.580 C 181.200 321.487,180.542 322.001,179.647 323.791 M258.400 324.000 C 258.400 324.440,258.580 324.800,258.800 324.800 C 259.020 324.800,259.200 324.440,259.200 324.000 C 259.200 323.560,259.020 323.200,258.800 323.200 C 258.580 323.200,258.400 323.560,258.400 324.000 M213.600 324.800 C 213.600 325.460,213.420 326.000,213.200 326.000 C 212.980 326.000,212.800 325.460,212.800 324.800 C 212.800 324.140,212.980 323.600,213.200 323.600 C 213.420 323.600,213.600 324.140,213.600 324.800 M260.100 325.065 C 259.505 325.305,259.433 326.649,259.995 326.997 C 260.225 327.139,260.287 326.972,260.143 326.597 C 259.975 326.157,260.165 325.882,260.744 325.731 C 261.210 325.609,261.492 325.350,261.372 325.155 C 261.135 324.771,260.874 324.752,260.100 325.065 M145.487 325.846 C 144.919 326.414,145.171 328.800,145.800 328.800 C 146.164 328.800,146.389 328.446,146.372 327.900 C 146.333 326.657,145.834 325.499,145.487 325.846 M261.654 327.143 C 261.611 328.213,261.467 328.434,260.943 328.234 C 260.447 328.043,260.389 328.106,260.705 328.491 C 260.935 328.771,261.186 329.448,261.262 329.996 C 261.488 331.627,262.800 331.553,262.800 329.909 C 262.800 329.167,262.635 328.389,262.434 328.180 C 262.232 327.971,261.987 327.350,261.888 326.800 C 261.743 325.987,261.699 326.052,261.654 327.143 M176.450 328.900 C 175.959 329.835,174.932 331.545,174.167 332.700 C 173.402 333.855,172.975 334.800,173.217 334.800 C 173.845 334.800,174.800 333.761,174.800 333.078 C 174.800 332.759,175.070 332.274,175.400 332.000 C 175.730 331.726,176.000 331.254,176.000 330.951 C 176.000 330.648,176.180 330.400,176.400 330.400 C 176.620 330.400,176.800 330.152,176.800 329.849 C 176.800 329.546,177.070 329.074,177.400 328.800 C 177.730 328.526,178.000 328.054,178.000 327.751 C 178.000 326.713,177.341 327.201,176.450 328.900 M146.400 330.976 C 146.400 331.979,146.580 332.800,146.800 332.800 C 147.020 332.800,147.200 332.091,147.200 331.224 C 147.200 330.357,147.020 329.536,146.800 329.400 C 146.556 329.249,146.400 329.863,146.400 330.976 M262.400 329.800 C 262.400 330.130,262.220 330.400,262.000 330.400 C 261.780 330.400,261.600 330.130,261.600 329.800 C 261.600 329.470,261.780 329.200,262.000 329.200 C 262.220 329.200,262.400 329.470,262.400 329.800 M214.800 332.000 C 214.800 332.414,214.620 332.864,214.400 333.000 C 214.166 333.145,214.000 332.730,214.000 332.000 C 214.000 331.270,214.166 330.855,214.400 331.000 C 214.620 331.136,214.800 331.586,214.800 332.000 M262.567 332.141 C 262.213 333.065,262.546 334.921,263.100 335.102 C 263.444 335.216,263.600 334.766,263.600 333.657 C 263.600 332.006,262.973 331.085,262.567 332.141 M147.454 334.202 C 147.315 334.565,147.456 334.800,147.813 334.800 C 148.460 334.800,148.607 334.175,148.042 333.826 C 147.845 333.704,147.581 333.874,147.454 334.202 M245.200 336.151 C 245.200 336.454,244.930 336.926,244.600 337.200 C 244.267 337.476,244.001 338.344,244.002 339.149 L 244.005 340.600 244.602 339.454 C 244.931 338.824,245.200 338.124,245.200 337.898 C 245.200 337.673,245.497 337.271,245.861 337.005 C 246.225 336.739,246.394 336.314,246.238 336.061 C 245.845 335.426,245.200 335.482,245.200 336.151 M263.600 337.176 C 263.600 338.818,264.147 339.636,264.547 338.593 C 264.846 337.814,264.405 335.600,263.950 335.600 C 263.757 335.600,263.600 336.309,263.600 337.176 M104.600 336.400 C 104.759 336.657,103.404 336.800,100.824 336.800 C 98.408 336.800,96.800 336.640,96.800 336.400 C 96.800 336.162,98.325 336.000,100.576 336.000 C 102.663 336.000,104.463 336.179,104.600 336.400 M126.800 337.600 C 126.107 338.048,123.170 338.055,120.000 337.617 C 118.170 337.364,118.608 337.304,122.600 337.262 C 125.828 337.229,127.204 337.339,126.800 337.600 M264.603 340.787 C 264.331 342.023,264.571 342.800,265.224 342.800 C 265.709 342.800,265.717 340.120,265.233 339.820 C 265.030 339.695,264.747 340.130,264.603 340.787 M126.995 342.434 C 126.558 343.129,125.883 344.171,125.495 344.749 C 125.108 345.327,124.682 346.115,124.549 346.500 C 124.416 346.885,124.148 347.200,123.953 347.200 C 123.432 347.200,123.524 346.237,124.100 345.656 C 124.501 345.252,124.461 345.205,123.900 345.419 C 123.515 345.566,123.200 346.026,123.200 346.443 C 123.200 346.859,123.061 347.200,122.891 347.200 C 122.721 347.200,122.235 347.875,121.811 348.700 C 121.387 349.525,120.777 350.516,120.456 350.902 C 120.134 351.289,120.000 351.734,120.158 351.891 C 120.315 352.048,120.611 351.912,120.816 351.588 C 121.068 351.190,121.190 351.161,121.194 351.500 C 121.198 351.802,121.516 351.684,122.000 351.200 C 122.440 350.760,122.800 350.212,122.800 349.983 C 122.800 349.591,123.113 349.138,124.300 347.815 C 124.575 347.508,124.800 346.994,124.800 346.671 C 124.800 346.349,125.070 345.982,125.400 345.855 C 125.730 345.729,126.000 345.337,126.000 344.984 C 126.000 344.631,126.225 344.092,126.500 343.785 C 127.786 342.352,128.048 341.944,127.924 341.571 C 127.850 341.351,127.432 341.739,126.995 342.434 M125.680 342.080 C 125.416 342.344,125.200 342.779,125.200 343.047 C 125.200 343.314,124.993 343.602,124.740 343.687 C 124.487 343.771,124.356 344.069,124.450 344.350 C 124.543 344.630,125.011 344.126,125.490 343.230 C 126.415 341.497,126.445 341.315,125.680 342.080 M74.649 346.616 C 74.519 346.955,74.569 347.540,74.760 347.916 C 75.199 348.783,75.861 350.393,76.151 351.300 C 76.274 351.685,76.724 352.000,77.150 352.000 C 77.986 352.000,77.933 350.804,77.044 349.600 C 76.206 348.467,75.600 347.210,75.600 346.605 C 75.600 345.817,74.953 345.824,74.649 346.616 M123.600 347.976 C 123.600 348.448,122.820 348.953,122.533 348.667 C 122.247 348.380,122.752 347.600,123.224 347.600 C 123.431 347.600,123.600 347.769,123.600 347.976 " stroke="none" fill="#c34226" fill-rule="evenodd"></path><path id="path3" d="M222.914 126.366 C 222.531 126.979,222.552 127.228,223.018 127.615 C 223.338 127.881,223.600 128.346,223.600 128.649 C 223.600 128.952,223.765 129.200,223.967 129.200 C 224.169 129.200,224.747 129.875,225.250 130.700 C 225.754 131.525,226.309 132.260,226.483 132.333 C 226.657 132.407,226.800 132.639,226.800 132.850 C 226.800 133.061,226.980 133.451,227.200 133.717 C 228.380 135.143,232.000 140.502,232.000 140.824 C 232.000 141.031,232.158 141.200,232.351 141.200 C 232.835 141.200,233.733 143.462,233.438 143.938 C 233.307 144.151,232.848 144.233,232.418 144.121 C 231.381 143.849,231.364 143.968,230.784 155.200 C 229.795 174.390,229.889 179.722,231.181 177.631 C 231.461 177.177,232.605 164.047,232.543 162.000 C 232.526 161.450,232.772 158.046,233.090 154.436 C 233.545 149.264,233.564 147.681,233.183 146.969 C 232.644 145.961,233.703 144.001,235.228 143.185 C 236.443 142.535,235.410 139.908,233.188 138.000 C 233.060 137.890,232.280 136.900,231.454 135.800 C 230.629 134.700,229.524 133.260,228.999 132.600 C 225.104 127.699,224.000 126.227,224.000 125.934 C 224.000 125.342,223.406 125.578,222.914 126.366 M224.105 142.687 C 224.714 142.779,225.614 142.777,226.105 142.682 C 226.597 142.587,226.100 142.511,225.000 142.514 C 223.900 142.517,223.497 142.595,224.105 142.687 M217.400 143.600 C 216.780 143.866,216.983 143.950,218.300 143.972 C 219.235 143.987,220.000 143.820,220.000 143.600 C 220.000 143.121,218.516 143.121,217.400 143.600 M211.200 144.800 C 211.200 145.020,211.639 145.200,212.176 145.200 C 212.713 145.200,213.264 145.020,213.400 144.800 C 213.544 144.567,213.137 144.400,212.424 144.400 C 211.751 144.400,211.200 144.580,211.200 144.800 M165.600 219.800 C 165.600 220.130,165.780 220.400,166.000 220.400 C 166.220 220.400,166.400 220.130,166.400 219.800 C 166.400 219.470,166.220 219.200,166.000 219.200 C 165.780 219.200,165.600 219.470,165.600 219.800 M169.600 221.200 C 169.196 221.461,170.739 221.590,174.324 221.594 C 177.772 221.598,179.560 221.459,179.400 221.200 C 179.081 220.684,170.399 220.684,169.600 221.200 M196.000 222.429 C 198.256 222.842,202.400 222.780,202.400 222.334 C 202.400 222.150,200.555 222.023,198.300 222.050 C 194.869 222.092,194.494 222.154,196.000 222.429 M217.400 223.212 C 215.063 223.429,215.098 223.439,218.697 223.617 C 221.199 223.741,222.448 223.656,222.563 223.355 C 222.747 222.873,221.441 222.837,217.400 223.212 M298.162 238.800 C 298.247 239.570,298.938 242.630,299.699 245.600 C 300.459 248.570,301.184 251.450,301.309 252.000 C 301.435 252.550,301.831 254.080,302.191 255.400 C 302.918 258.074,303.249 259.401,304.133 263.200 C 304.823 266.168,306.245 271.927,306.799 274.000 C 307.514 276.679,308.315 279.807,308.564 280.900 C 308.763 281.770,310.907 282.736,310.785 281.900 C 310.610 280.697,298.055 237.831,298.162 238.800 M272.500 249.465 C 271.716 249.781,271.915 250.400,272.800 250.400 C 273.244 250.400,273.600 250.133,273.600 249.800 C 273.600 249.184,273.370 249.114,272.500 249.465 M136.200 257.200 C 135.768 257.900,136.409 258.491,137.036 257.970 C 137.346 257.713,137.600 257.344,137.600 257.151 C 137.600 256.669,136.505 256.707,136.200 257.200 M253.456 257.478 C 253.005 257.928,253.181 258.400,253.800 258.400 C 254.130 258.400,254.400 258.231,254.400 258.024 C 254.400 257.519,253.775 257.158,253.456 257.478 M247.049 263.416 C 246.689 264.355,246.715 264.400,247.629 264.400 C 248.189 264.400,248.417 264.183,248.329 263.733 C 248.152 262.820,247.354 262.622,247.049 263.416 M230.905 264.287 C 231.514 264.379,232.414 264.377,232.905 264.282 C 233.397 264.187,232.900 264.111,231.800 264.114 C 230.700 264.117,230.297 264.195,230.905 264.287 M224.200 265.200 C 225.312 265.678,226.705 265.678,227.000 265.200 C 227.153 264.953,226.510 264.811,225.324 264.828 C 223.881 264.849,223.600 264.942,224.200 265.200 M217.800 266.000 C 216.735 266.271,216.816 266.311,218.524 266.353 C 219.715 266.382,220.353 266.248,220.200 266.000 C 219.925 265.555,219.550 265.555,217.800 266.000 M204.053 266.701 C 203.744 267.278,203.720 267.600,203.986 267.600 C 204.214 267.600,204.400 267.881,204.400 268.225 C 204.400 268.720,204.705 268.801,205.877 268.615 C 207.769 268.314,208.087 268.000,206.500 268.000 C 205.510 268.000,205.194 267.783,204.900 266.901 L 204.534 265.802 204.053 266.701 M211.200 267.200 C 211.200 267.420,211.729 267.600,212.376 267.600 C 213.023 267.600,213.664 267.420,213.800 267.200 C 213.947 266.962,213.471 266.800,212.624 266.800 C 211.841 266.800,211.200 266.980,211.200 267.200 M197.494 278.036 C 197.776 279.116,198.400 279.412,198.400 278.466 C 198.400 278.037,198.150 277.590,197.845 277.473 C 197.455 277.323,197.351 277.490,197.494 278.036 M287.798 302.802 C 286.742 303.969,287.240 304.123,288.348 302.973 C 288.863 302.438,289.113 302.000,288.904 302.000 C 288.695 302.000,288.197 302.361,287.798 302.802 M284.300 306.033 C 283.372 307.050,284.195 307.022,285.292 306.000 C 285.880 305.452,285.969 305.211,285.575 305.233 C 285.259 305.252,284.685 305.612,284.300 306.033 M280.800 308.800 C 280.800 309.020,280.610 309.200,280.378 309.200 C 279.792 309.200,277.376 311.509,277.663 311.796 C 277.943 312.077,280.000 311.192,280.000 310.790 C 280.000 310.636,280.475 310.035,281.055 309.455 C 281.868 308.641,281.959 308.400,281.455 308.400 C 281.095 308.400,280.800 308.580,280.800 308.800 M210.800 310.400 C 210.800 311.130,210.966 311.545,211.200 311.400 C 211.420 311.264,211.600 310.814,211.600 310.400 C 211.600 309.986,211.420 309.536,211.200 309.400 C 210.966 309.255,210.800 309.670,210.800 310.400 M211.841 316.734 C 211.727 316.918,211.791 317.593,211.983 318.234 C 212.329 319.393,212.331 319.390,212.366 317.900 C 212.400 316.421,212.246 316.079,211.841 316.734 M212.800 324.800 C 212.800 325.460,212.980 326.000,213.200 326.000 C 213.420 326.000,213.600 325.460,213.600 324.800 C 213.600 324.140,213.420 323.600,213.200 323.600 C 212.980 323.600,212.800 324.140,212.800 324.800 M260.221 325.966 C 259.912 326.467,260.682 328.400,261.190 328.400 C 261.416 328.400,261.600 327.770,261.600 327.000 C 261.600 325.651,260.791 325.044,260.221 325.966 M261.600 329.800 C 261.600 330.130,261.780 330.400,262.000 330.400 C 262.220 330.400,262.400 330.130,262.400 329.800 C 262.400 329.470,262.220 329.200,262.000 329.200 C 261.780 329.200,261.600 329.470,261.600 329.800 M214.000 332.000 C 214.000 332.730,214.166 333.145,214.400 333.000 C 214.620 332.864,214.800 332.414,214.800 332.000 C 214.800 331.586,214.620 331.136,214.400 331.000 C 214.166 330.855,214.000 331.270,214.000 332.000 M96.800 336.400 C 96.800 336.640,98.408 336.800,100.824 336.800 C 103.404 336.800,104.759 336.657,104.600 336.400 C 104.463 336.179,102.663 336.000,100.576 336.000 C 98.325 336.000,96.800 336.162,96.800 336.400 M120.000 337.617 C 123.170 338.055,126.107 338.048,126.800 337.600 C 127.204 337.339,125.828 337.229,122.600 337.262 C 118.608 337.304,118.170 337.364,120.000 337.617 M127.854 338.900 C 126.534 341.374,125.396 343.419,124.500 344.929 C 124.005 345.763,123.600 346.615,123.600 346.823 C 123.600 347.469,124.294 347.236,124.560 346.500 C 124.699 346.115,125.040 345.440,125.319 345.000 C 125.597 344.560,126.457 343.210,127.229 342.000 C 129.165 338.969,129.736 337.600,129.066 337.600 C 128.781 337.600,128.236 338.185,127.854 338.900 M122.584 348.027 C 122.439 348.261,122.416 348.549,122.533 348.667 C 122.820 348.953,123.600 348.448,123.600 347.976 C 123.600 347.465,122.909 347.499,122.584 348.027 " stroke="none" fill="#c1271c" fill-rule="evenodd"></path><path id="path4" d="M248.675 85.936 C 246.324 89.646,244.400 92.782,244.400 92.904 C 244.400 93.206,248.117 93.601,253.246 93.846 L 257.493 94.048 255.495 86.924 C 254.396 83.006,253.374 79.663,253.224 79.495 C 253.074 79.328,251.027 82.226,248.675 85.936 M291.044 214.684 C 290.767 215.455,290.259 216.331,289.000 218.210 C 287.755 220.067,287.217 220.949,286.932 221.600 C 286.788 221.930,286.294 222.736,285.835 223.392 C 284.880 224.754,284.337 225.665,283.392 227.482 C 283.026 228.186,282.473 228.974,282.163 229.231 C 281.853 229.488,281.600 229.954,281.600 230.266 C 281.600 230.798,281.333 231.210,280.100 232.585 C 279.825 232.892,279.600 233.431,279.600 233.784 C 279.600 234.137,279.330 234.529,279.000 234.655 C 278.670 234.782,278.400 235.226,278.400 235.643 C 278.400 236.059,278.252 236.400,278.071 236.400 C 277.890 236.400,277.343 237.165,276.856 238.100 C 275.802 240.122,275.085 241.326,274.771 241.600 C 274.645 241.710,274.418 242.070,274.266 242.400 C 274.115 242.730,273.631 243.540,273.191 244.200 C 272.751 244.860,272.282 245.715,272.149 246.100 C 272.016 246.485,271.769 246.800,271.600 246.800 C 271.431 246.800,271.188 247.115,271.058 247.500 C 270.929 247.885,270.599 248.506,270.326 248.881 C 269.498 250.014,270.181 250.073,272.243 249.045 C 273.320 248.509,274.965 247.750,275.900 247.358 C 276.835 246.967,277.600 246.501,277.600 246.323 C 277.600 246.145,277.822 246.000,278.094 246.000 C 278.366 246.000,279.491 245.568,280.594 245.039 C 281.697 244.510,284.220 243.320,286.200 242.394 C 288.180 241.468,290.070 240.550,290.400 240.353 C 290.730 240.156,291.270 239.890,291.600 239.762 C 292.417 239.445,296.458 237.605,297.200 237.212 C 297.969 236.804,298.058 237.219,294.543 224.805 C 291.270 213.246,291.413 213.658,291.044 214.684 M167.710 222.545 C 167.593 222.734,167.656 223.004,167.849 223.145 C 168.043 223.285,168.612 224.210,169.115 225.200 C 169.619 226.190,170.193 227.270,170.392 227.600 C 170.591 227.930,171.068 228.965,171.454 229.900 C 171.839 230.835,172.299 231.600,172.477 231.600 C 172.655 231.600,172.800 231.938,172.800 232.351 C 172.800 232.764,173.070 233.326,173.400 233.600 C 173.730 233.874,174.000 234.436,174.000 234.849 C 174.000 235.262,174.180 235.600,174.400 235.600 C 174.620 235.600,174.800 235.938,174.800 236.351 C 174.800 236.764,175.070 237.326,175.400 237.600 C 175.730 237.874,176.000 238.400,176.000 238.769 C 176.000 239.138,176.201 239.641,176.446 239.886 C 176.692 240.132,177.102 240.753,177.358 241.266 L 177.823 242.200 194.012 242.304 L 210.200 242.409 215.800 233.742 C 218.880 228.976,221.452 224.950,221.515 224.795 C 221.577 224.640,217.591 224.383,212.656 224.224 C 207.721 224.065,202.990 223.774,202.142 223.577 C 201.294 223.380,196.944 223.215,192.477 223.210 C 188.009 223.204,183.149 223.024,181.677 222.809 C 178.164 222.296,167.982 222.103,167.710 222.545 M161.441 223.036 C 161.108 223.904,161.600 224.644,162.044 223.943 C 162.494 223.232,162.494 222.400,162.043 222.400 C 161.846 222.400,161.576 222.686,161.441 223.036 M258.500 249.042 C 258.005 249.505,257.600 250.091,257.600 250.344 C 257.600 250.597,257.150 251.737,256.600 252.877 C 256.050 254.017,255.600 255.127,255.600 255.343 C 255.600 255.560,255.318 256.048,254.974 256.429 C 254.556 256.891,254.490 257.209,254.777 257.386 C 255.013 257.531,255.314 257.369,255.446 257.025 C 255.578 256.681,255.903 256.400,256.168 256.400 C 258.288 256.400,261.204 253.909,260.279 252.888 C 259.932 252.504,259.593 251.293,259.524 250.195 L 259.400 248.200 258.500 249.042 M185.777 258.000 C 186.120 258.660,186.684 259.747,187.032 260.415 C 187.379 261.084,187.884 262.056,188.154 262.577 C 188.631 263.496,188.698 263.440,190.522 260.578 C 192.990 256.707,193.033 256.800,188.777 256.800 L 185.155 256.800 185.777 258.000 M203.200 269.100 C 203.200 269.511,202.936 270.196,202.613 270.624 C 202.290 271.051,202.020 271.805,202.013 272.300 C 202.006 272.795,201.844 273.200,201.654 273.200 C 201.464 273.200,200.989 274.055,200.598 275.100 C 200.207 276.145,199.758 277.180,199.599 277.400 C 199.440 277.620,199.192 278.295,199.048 278.900 C 198.903 279.505,198.608 280.000,198.392 280.000 C 198.177 280.000,198.000 280.450,198.000 281.000 L 198.000 282.000 202.000 282.000 C 205.733 282.000,206.000 281.947,206.000 281.200 C 206.000 280.760,205.847 280.400,205.659 280.400 C 205.472 280.400,205.205 278.927,205.066 277.127 C 204.927 275.327,204.631 273.671,204.407 273.447 C 204.183 273.223,204.000 272.097,204.000 270.944 C 204.000 269.791,203.820 268.736,203.600 268.600 C 203.380 268.464,203.200 268.689,203.200 269.100 M196.262 297.531 C 195.898 297.934,195.600 298.401,195.600 298.570 C 195.600 298.738,195.195 299.442,194.700 300.133 C 194.205 300.823,193.589 301.789,193.332 302.279 C 192.186 304.457,191.363 305.825,190.900 306.321 C 190.625 306.616,190.400 307.114,190.400 307.429 C 190.400 307.743,190.263 308.000,190.095 308.000 C 189.789 308.000,189.067 309.185,188.571 310.500 C 188.426 310.885,188.148 311.200,187.953 311.200 C 187.759 311.200,187.600 311.457,187.600 311.771 C 187.600 312.086,187.375 312.588,187.100 312.888 C 186.370 313.685,185.611 314.899,185.342 315.700 C 185.212 316.085,184.948 316.400,184.753 316.400 C 184.559 316.400,184.400 316.751,184.400 317.180 C 184.400 317.609,184.173 318.104,183.896 318.280 C 183.619 318.456,183.038 319.275,182.605 320.100 C 182.172 320.925,181.679 321.600,181.509 321.600 C 181.339 321.600,181.200 321.951,181.200 322.380 C 181.200 322.809,180.965 323.304,180.678 323.480 C 180.392 323.656,179.843 324.475,179.460 325.300 C 179.076 326.125,178.591 326.800,178.381 326.800 C 178.172 326.800,178.000 327.138,178.000 327.551 C 178.000 327.964,177.730 328.526,177.400 328.800 C 177.070 329.074,176.800 329.546,176.800 329.849 C 176.800 330.152,176.620 330.400,176.400 330.400 C 176.180 330.400,176.000 330.648,176.000 330.951 C 176.000 331.254,175.730 331.726,175.400 332.000 C 175.070 332.274,174.800 332.836,174.800 333.249 C 174.800 333.662,174.620 334.000,174.400 334.000 C 174.180 334.000,174.000 334.180,174.000 334.400 C 174.000 334.804,212.860 335.007,213.262 334.604 C 213.370 334.497,213.297 333.462,213.101 332.304 C 212.904 331.147,212.610 328.760,212.446 327.000 C 212.282 325.240,211.934 323.293,211.674 322.674 C 211.413 322.055,211.200 320.400,211.200 318.998 C 211.200 317.595,211.020 316.336,210.800 316.200 C 210.580 316.064,210.392 314.838,210.382 313.476 C 210.373 312.114,210.105 310.280,209.788 309.400 C 209.471 308.520,209.209 306.495,209.206 304.900 C 209.203 303.237,209.029 302.000,208.800 302.000 C 208.580 302.000,208.400 301.115,208.400 300.033 C 208.400 296.682,208.619 296.800,202.419 296.800 C 197.604 296.800,196.842 296.890,196.262 297.531 M80.162 338.061 C 79.559 339.017,78.253 341.060,77.261 342.600 C 75.296 345.649,75.175 346.467,76.390 348.474 C 77.184 349.784,77.535 350.526,77.826 351.500 C 77.943 351.892,82.495 352.000,98.843 352.000 C 122.252 352.000,119.913 352.318,121.668 348.900 C 122.149 347.965,122.690 347.200,122.871 347.200 C 123.052 347.200,123.200 346.859,123.200 346.443 C 123.200 346.026,123.470 345.582,123.800 345.455 C 124.130 345.329,124.400 344.859,124.400 344.413 C 124.400 343.966,124.559 343.600,124.753 343.600 C 124.948 343.600,125.216 343.285,125.349 342.900 C 125.482 342.515,125.940 341.660,126.366 341.000 C 128.053 338.389,128.093 338.403,119.100 338.372 C 114.645 338.356,109.560 338.166,107.800 337.951 C 106.040 337.735,99.740 337.417,93.800 337.244 C 87.860 337.071,82.608 336.793,82.130 336.626 C 81.397 336.370,81.086 336.597,80.162 338.061 " stroke="none" fill="#e44c3c" fill-rule="evenodd"></path></g></svg>