<svg id="svg" version="1.1" xmlns="http://www.w3.org/2000/svg" xmlns:xlink="http://www.w3.org/1999/xlink"  viewBox="0, 0, 400,400"><g id="svgg"><path id="path0" d="M134.272 159.063 C 133.665 160.239,112.056 207.012,111.710 207.900 C 111.560 208.282,112.593 208.400,116.095 208.400 L 120.675 208.400 122.437 204.407 L 124.200 200.414 134.831 200.407 L 145.461 200.400 147.303 204.400 L 149.144 208.400 153.619 208.400 C 157.692 208.400,158.075 208.337,157.888 207.700 C 157.678 206.984,135.223 158.311,134.989 158.063 C 134.917 157.987,134.595 158.437,134.272 159.063 M172.400 183.176 L 172.400 208.400 176.393 208.400 L 180.387 208.400 180.493 197.793 L 180.600 187.186 188.000 199.581 C 192.070 206.398,195.511 211.981,195.646 211.988 C 195.782 211.995,199.202 206.475,203.246 199.722 L 210.600 187.445 210.707 197.922 L 210.813 208.400 214.807 208.400 L 218.800 208.400 218.800 183.200 C 218.800 169.340,218.719 158.000,218.620 158.000 C 218.520 158.000,213.364 166.460,207.162 176.800 C 200.959 187.140,195.774 195.600,195.640 195.600 C 195.505 195.600,190.371 187.222,184.230 176.982 C 178.089 166.742,172.915 158.271,172.732 158.158 C 172.550 158.045,172.400 169.303,172.400 183.176 M242.000 183.200 L 242.000 208.400 245.995 208.400 L 249.990 208.400 250.095 194.112 L 250.200 179.825 262.757 195.212 C 269.663 203.676,275.648 210.955,276.057 211.389 C 276.782 212.158,276.800 211.557,276.800 187.089 L 276.800 162.000 272.805 162.000 L 268.810 162.000 268.705 175.981 L 268.600 189.962 255.600 174.006 C 248.450 165.230,242.465 158.038,242.300 158.025 C 242.135 158.011,242.000 169.340,242.000 183.200 M314.272 159.063 C 313.665 160.239,292.056 207.012,291.710 207.900 C 291.560 208.282,292.593 208.400,296.095 208.400 L 300.675 208.400 302.437 204.407 L 304.200 200.414 314.831 200.407 L 325.461 200.400 327.303 204.400 L 329.144 208.400 333.619 208.400 C 337.692 208.400,338.075 208.337,337.888 207.700 C 337.678 206.984,315.223 158.311,314.989 158.063 C 314.917 157.987,314.595 158.437,314.272 159.063 M141.584 192.100 C 141.593 192.265,138.540 192.400,134.800 192.400 C 131.060 192.400,128.000 192.341,128.000 192.268 C 128.000 192.196,129.274 189.361,130.832 185.968 C 132.390 182.576,133.930 179.170,134.255 178.400 L 134.846 177.000 138.207 184.400 C 140.056 188.470,141.575 191.935,141.584 192.100 M321.584 192.100 C 321.593 192.265,318.540 192.400,314.800 192.400 C 311.060 192.400,308.000 192.341,308.000 192.268 C 308.000 192.196,309.274 189.361,310.832 185.968 C 312.390 182.576,313.930 179.170,314.255 178.400 L 314.846 177.000 318.207 184.400 C 320.056 188.470,321.575 191.935,321.584 192.100 M112.800 230.914 L 112.800 239.200 114.200 239.200 L 115.600 239.200 115.605 235.900 L 115.609 232.600 118.069 236.731 L 120.528 240.862 121.764 238.848 C 122.444 237.740,123.579 235.881,124.287 234.717 L 125.573 232.600 125.587 235.900 L 125.600 239.200 127.000 239.200 L 128.400 239.200 128.400 231.000 C 128.400 226.490,128.265 222.804,128.100 222.809 C 127.935 222.815,126.204 225.515,124.253 228.809 C 122.302 232.104,120.648 234.800,120.577 234.800 C 120.507 234.800,118.973 232.325,117.168 229.300 C 112.443 221.379,112.800 221.247,112.800 230.914 M140.078 223.466 C 139.716 224.154,136.525 231.066,133.968 236.700 L 132.833 239.200 134.406 239.200 C 135.750 239.200,136.070 239.025,136.600 238.000 C 137.216 236.808,137.245 236.800,140.645 236.800 L 144.069 236.800 144.522 238.000 C 144.927 239.071,145.156 239.200,146.654 239.200 L 148.332 239.200 144.608 231.176 C 140.427 222.165,140.604 222.467,140.078 223.466 M227.600 231.000 L 227.600 239.200 228.987 239.200 L 230.374 239.200 230.487 234.768 L 230.600 230.335 234.900 235.606 L 239.200 240.876 239.200 232.438 L 239.200 224.000 237.813 224.000 L 236.426 224.000 236.313 228.390 L 236.200 232.781 232.200 227.813 C 230.000 225.081,228.065 222.836,227.900 222.823 C 227.735 222.810,227.600 226.490,227.600 231.000 M282.878 223.466 C 282.516 224.154,279.325 231.066,276.768 236.700 L 275.633 239.200 277.206 239.200 C 278.550 239.200,278.870 239.025,279.400 238.000 C 280.016 236.808,280.045 236.800,283.445 236.800 L 286.869 236.800 287.322 238.000 C 287.727 239.071,287.956 239.200,289.454 239.200 L 291.132 239.200 287.408 231.176 C 283.227 222.165,283.404 222.467,282.878 223.466 M331.200 231.000 L 331.200 239.200 332.587 239.200 L 333.974 239.200 334.087 234.768 L 334.200 230.335 338.500 235.606 L 342.800 240.876 342.800 232.438 L 342.800 224.000 341.413 224.000 L 340.026 224.000 339.913 228.390 L 339.800 232.781 335.800 227.813 C 333.600 225.081,331.665 222.836,331.500 222.823 C 331.335 222.810,331.200 226.490,331.200 231.000 M250.800 223.670 C 245.093 225.292,242.977 232.585,246.913 237.068 C 252.015 242.879,261.582 239.251,261.598 231.500 L 261.600 230.400 257.400 230.400 L 253.200 230.400 253.200 231.800 L 253.200 233.200 255.800 233.200 C 258.744 233.200,258.774 233.235,257.389 235.049 C 255.368 237.700,251.220 237.765,249.045 235.181 C 245.033 230.413,250.818 223.972,256.240 227.171 L 257.731 228.050 258.706 227.076 L 259.680 226.102 258.340 225.090 C 256.090 223.391,253.498 222.903,250.800 223.670 M300.000 223.670 C 294.293 225.292,292.177 232.585,296.113 237.068 C 301.215 242.879,310.782 239.251,310.798 231.500 L 310.800 230.400 306.600 230.400 L 302.400 230.400 302.400 231.800 L 302.400 233.200 305.000 233.200 C 307.944 233.200,307.974 233.235,306.589 235.049 C 304.568 237.700,300.420 237.765,298.245 235.181 C 294.233 230.413,300.018 223.972,305.440 227.171 L 306.931 228.050 307.906 227.076 L 308.880 226.102 307.540 225.090 C 305.290 223.391,302.698 222.903,300.000 223.670 M354.800 223.670 C 347.515 225.740,346.848 236.097,353.797 239.254 C 357.637 240.999,364.325 238.947,362.089 236.711 C 361.302 235.924,361.233 235.921,359.458 236.599 C 354.534 238.480,350.253 234.161,352.348 229.425 C 353.780 226.187,357.038 225.323,360.336 227.306 L 361.672 228.110 362.676 227.106 L 363.680 226.102 362.340 225.090 C 360.090 223.391,357.498 222.903,354.800 223.670 M152.800 231.564 L 152.800 239.200 154.200 239.200 C 155.593 239.200,155.600 239.190,155.600 237.400 C 155.600 235.790,155.697 235.600,156.517 235.600 C 157.075 235.600,158.125 236.304,159.200 237.400 C 160.778 239.008,161.159 239.200,162.778 239.200 L 164.589 239.200 162.721 237.331 L 160.852 235.463 162.495 234.004 C 165.046 231.740,165.202 228.430,162.875 225.933 L 161.259 224.200 157.030 224.064 L 152.800 223.927 152.800 231.564 M170.400 231.600 L 170.400 239.200 171.783 239.200 L 173.166 239.200 173.283 236.110 L 173.400 233.020 175.954 236.110 C 178.440 239.118,178.555 239.200,180.287 239.200 L 182.067 239.200 181.333 238.233 C 180.930 237.701,179.549 235.996,178.264 234.444 L 175.927 231.622 178.964 228.043 C 182.527 223.842,182.476 224.000,180.282 224.000 C 178.620 224.000,178.478 224.105,175.882 227.248 L 173.200 230.496 173.200 227.248 L 173.200 224.000 171.800 224.000 L 170.400 224.000 170.400 231.600 M186.800 231.600 L 186.800 239.200 191.400 239.200 L 196.000 239.200 196.000 237.800 L 196.000 236.400 192.800 236.400 L 189.600 236.400 189.600 234.800 L 189.600 233.200 192.200 233.200 L 194.800 233.200 194.800 231.800 L 194.800 230.400 192.200 230.400 L 189.600 230.400 189.600 228.600 L 189.600 226.800 192.800 226.800 L 196.000 226.800 196.000 225.400 L 196.000 224.000 191.400 224.000 L 186.800 224.000 186.800 231.600 M201.600 225.400 L 201.600 226.800 203.600 226.800 L 205.600 226.800 205.600 233.000 L 205.600 239.200 207.000 239.200 L 208.400 239.200 208.400 233.000 L 208.400 226.800 210.200 226.800 C 211.990 226.800,212.000 226.793,212.000 225.400 L 212.000 224.000 206.800 224.000 L 201.600 224.000 201.600 225.400 M217.200 231.600 L 217.200 239.200 218.600 239.200 L 220.000 239.200 220.000 231.600 L 220.000 224.000 218.600 224.000 L 217.200 224.000 217.200 231.600 M316.400 231.600 L 316.400 239.200 321.000 239.200 L 325.600 239.200 325.600 237.800 L 325.600 236.400 322.400 236.400 L 319.200 236.400 319.200 234.800 L 319.200 233.200 321.800 233.200 L 324.400 233.200 324.400 231.800 L 324.400 230.400 321.800 230.400 L 319.200 230.400 319.200 228.600 L 319.200 226.800 322.400 226.800 L 325.600 226.800 325.600 225.400 L 325.600 224.000 321.000 224.000 L 316.400 224.000 316.400 231.600 M367.337 224.960 C 367.683 225.488,368.874 227.350,369.983 229.097 L 372.000 232.274 372.000 235.737 L 372.000 239.200 373.400 239.200 L 374.800 239.200 374.801 235.500 L 374.802 231.800 377.200 228.200 C 380.031 223.951,380.021 223.999,378.100 224.003 C 376.707 224.007,376.490 224.177,375.056 226.403 C 373.184 229.308,373.341 229.309,371.513 226.382 C 370.085 224.095,369.959 224.000,368.367 224.000 L 366.708 224.000 367.337 224.960 M160.618 227.782 C 162.805 229.969,161.112 232.800,157.618 232.800 L 155.600 232.800 155.600 229.800 L 155.600 226.800 157.618 226.800 C 159.228 226.800,159.835 226.999,160.618 227.782 M141.863 232.100 L 142.813 234.000 140.640 234.000 L 138.467 234.000 139.531 231.593 C 140.116 230.269,140.667 229.414,140.754 229.693 C 140.841 229.972,141.340 231.055,141.863 232.100 M284.663 232.100 L 285.613 234.000 283.440 234.000 L 281.267 234.000 282.331 231.593 C 282.916 230.269,283.467 229.414,283.554 229.693 C 283.641 229.972,284.140 231.055,284.663 232.100 " stroke="none" fill="#fcfcfc" fill-rule="evenodd"></path><path id="path1" d="M86.295 150.258 C 75.833 166.620,71.944 172.877,72.125 173.059 C 72.244 173.177,73.983 173.019,75.990 172.707 C 77.997 172.394,79.691 172.243,79.755 172.369 C 79.819 172.496,79.766 175.523,79.636 179.096 C 79.466 183.785,79.527 185.641,79.856 185.767 C 80.177 185.890,80.398 184.177,80.601 179.971 C 80.760 176.687,81.006 174.000,81.148 174.000 C 81.289 174.000,84.905 174.983,89.184 176.185 C 93.462 177.387,96.999 178.332,97.044 178.285 C 97.184 178.137,88.550 148.017,88.294 147.761 C 88.159 147.626,87.260 148.750,86.295 150.258 M57.200 195.909 C 53.350 201.980,49.785 207.634,49.277 208.474 L 48.355 210.000 60.186 210.000 L 72.018 210.000 74.647 205.988 C 76.093 203.781,77.192 201.756,77.088 201.488 C 76.870 200.920,65.827 186.521,64.855 185.536 C 64.247 184.919,63.701 185.658,57.200 195.909 M95.330 187.800 L 92.070 190.800 88.392 190.800 C 84.779 190.800,84.717 190.816,84.932 191.700 C 85.579 194.370,85.640 195.044,85.147 194.100 C 84.889 193.605,84.570 193.200,84.439 193.201 C 83.939 193.202,79.806 200.455,79.932 201.111 C 80.004 201.490,81.106 205.445,82.381 209.900 L 84.698 218.000 77.395 218.000 L 70.092 218.000 69.388 219.075 C 69.000 219.666,68.643 220.521,68.593 220.975 C 68.446 222.311,68.431 222.336,67.687 222.573 C 67.294 222.697,66.654 223.339,66.264 223.999 L 65.555 225.200 67.971 225.200 L 70.388 225.200 70.143 222.860 C 69.857 220.126,68.852 220.583,78.200 219.197 L 84.200 218.307 96.397 221.753 C 106.885 224.717,110.407 225.559,110.398 225.100 C 110.397 225.045,108.714 219.095,106.658 211.878 L 102.919 198.756 97.572 207.616 C 93.385 214.554,92.159 216.316,91.917 215.738 C 91.747 215.332,90.246 209.960,88.581 203.800 C 86.916 197.640,85.462 192.285,85.350 191.900 C 85.161 191.250,85.710 191.200,93.016 191.200 C 100.008 191.200,100.859 191.130,100.644 190.571 C 100.511 190.225,100.095 188.785,99.718 187.371 C 98.881 184.230,99.249 184.194,95.330 187.800 M79.080 195.900 C 78.950 197.605,78.979 199.135,79.143 199.301 C 79.307 199.466,79.490 198.071,79.548 196.201 C 79.681 191.950,79.394 191.766,79.080 195.900 M42.563 215.939 C 42.678 216.126,44.354 216.696,46.286 217.206 C 48.219 217.715,49.866 218.184,49.948 218.247 C 50.029 218.310,49.783 219.639,49.400 221.200 C 49.017 222.761,48.804 224.137,48.926 224.259 C 49.121 224.454,58.761 223.032,60.453 222.559 C 60.982 222.411,65.200 216.381,65.200 215.772 C 65.200 215.677,60.059 215.600,53.776 215.600 C 47.493 215.600,42.447 215.753,42.563 215.939 M42.534 219.600 C 42.534 221.250,42.605 221.925,42.691 221.100 C 42.778 220.275,42.778 218.925,42.691 218.100 C 42.605 217.275,42.534 217.950,42.534 219.600 M84.934 222.000 C 84.934 223.650,85.005 224.325,85.091 223.500 C 85.178 222.675,85.178 221.325,85.091 220.500 C 85.005 219.675,84.934 220.350,84.934 222.000 M42.093 227.200 C 42.093 227.970,42.175 228.285,42.276 227.900 C 42.376 227.515,42.376 226.885,42.276 226.500 C 42.175 226.115,42.093 226.430,42.093 227.200 M44.000 230.267 C 44.000 230.413,44.473 232.293,45.051 234.443 L 46.101 238.353 43.857 241.910 C 40.969 246.487,41.198 246.562,35.490 239.154 C 32.815 235.682,30.601 232.877,30.570 232.920 C 29.740 234.102,19.052 251.120,18.914 251.481 C 18.753 251.899,21.010 252.000,30.519 252.000 L 42.323 252.000 44.376 248.800 C 46.030 246.221,46.620 245.600,47.414 245.600 C 47.956 245.600,48.400 245.513,48.400 245.406 C 48.400 245.241,45.162 233.215,44.542 231.079 C 44.346 230.404,44.705 230.366,50.167 230.479 C 53.376 230.546,56.001 230.465,56.001 230.300 C 56.000 230.135,53.300 230.000,50.000 230.000 C 46.700 230.000,44.000 230.120,44.000 230.267 M62.048 238.100 L 57.633 245.400 63.416 245.511 C 66.597 245.572,71.825 245.572,75.033 245.511 L 80.866 245.400 76.234 239.400 C 73.685 236.100,71.601 233.100,71.600 232.733 C 71.599 231.093,71.173 230.800,68.789 230.800 L 66.463 230.800 62.048 238.100 M100.284 234.000 L 97.171 236.800 93.542 236.800 L 89.913 236.800 90.157 237.800 C 90.802 240.453,90.853 241.071,90.347 240.100 C 89.670 238.802,89.636 238.832,86.972 243.123 L 84.545 247.034 85.172 249.286 C 85.518 250.524,85.913 251.650,86.052 251.787 C 86.591 252.322,93.634 249.139,93.429 248.453 C 93.322 248.094,92.675 245.730,91.991 243.200 C 91.307 240.670,90.657 238.285,90.547 237.900 C 90.361 237.251,90.890 237.200,97.773 237.200 C 101.858 237.200,105.202 237.065,105.203 236.900 C 105.211 236.224,103.807 231.200,103.610 231.200 C 103.493 231.200,101.997 232.460,100.284 234.000 " stroke="none" fill="#d14a1b" fill-rule="evenodd"></path><path id="path2" d="M75.499 172.744 L 71.598 173.325 67.974 179.041 L 64.350 184.757 70.862 193.194 C 78.346 202.893,78.489 202.956,78.999 196.803 C 79.369 192.328,79.535 192.158,79.494 196.295 C 79.446 201.016,79.422 201.011,82.011 196.779 C 84.416 192.849,84.470 192.802,85.147 194.100 C 85.653 195.071,85.602 194.453,84.957 191.800 L 84.713 190.800 88.457 190.781 L 92.200 190.762 95.523 187.660 L 98.847 184.558 98.033 181.622 C 97.586 180.007,97.143 178.610,97.050 178.517 C 96.873 178.339,81.595 174.000,81.148 174.000 C 81.006 174.000,80.760 176.687,80.601 179.971 C 80.398 184.177,80.177 185.890,79.856 185.767 C 79.527 185.641,79.466 183.786,79.638 179.096 C 79.920 171.409,80.321 172.024,75.499 172.744 M85.483 192.300 C 85.647 192.905,85.785 193.878,85.790 194.462 C 85.796 195.046,85.904 195.459,86.031 195.381 C 86.158 195.302,87.488 199.775,88.985 205.319 C 90.483 210.864,91.831 215.633,91.980 215.917 C 92.644 217.184,102.954 198.894,102.485 197.281 C 102.248 196.467,101.759 194.765,101.399 193.500 L 100.743 191.200 92.964 191.200 L 85.185 191.200 85.483 192.300 M41.530 216.107 C 40.947 216.581,31.383 231.459,30.973 232.527 C 30.706 233.221,40.183 245.467,40.987 245.467 C 41.339 245.467,42.592 243.914,43.857 241.910 L 46.101 238.353 45.051 234.443 C 44.473 232.293,44.000 230.413,44.000 230.267 C 44.000 230.120,46.748 230.000,50.106 230.000 L 56.212 230.000 58.406 226.538 C 59.613 224.634,60.651 222.952,60.713 222.800 C 60.775 222.648,58.198 222.964,54.986 223.502 C 48.151 224.648,48.518 224.799,49.400 221.200 C 49.783 219.639,50.029 218.312,49.948 218.251 C 49.866 218.190,48.270 217.732,46.400 217.232 C 44.530 216.732,42.805 216.163,42.567 215.968 C 42.307 215.755,41.893 215.811,41.530 216.107 M42.691 221.100 C 42.605 221.925,42.534 221.250,42.534 219.600 C 42.534 217.950,42.605 217.275,42.691 218.100 C 42.778 218.925,42.778 220.275,42.691 221.100 M78.000 219.180 C 75.690 219.568,72.921 220.016,71.847 220.175 L 69.895 220.465 70.123 222.675 C 70.248 223.890,70.424 224.957,70.513 225.046 C 70.602 225.135,79.058 225.161,89.305 225.104 L 107.935 225.000 96.067 221.690 C 89.540 219.869,83.750 218.401,83.200 218.427 C 82.650 218.453,80.310 218.792,78.000 219.180 M85.091 223.500 C 85.005 224.325,84.934 223.650,84.934 222.000 C 84.934 220.350,85.005 219.675,85.091 220.500 C 85.178 221.325,85.178 222.675,85.091 223.500 M68.119 221.290 C 67.272 222.384,67.153 222.793,67.748 222.564 C 68.333 222.340,68.960 221.226,68.666 220.933 C 68.583 220.849,68.336 221.010,68.119 221.290 M42.276 227.900 C 42.175 228.285,42.093 227.970,42.093 227.200 C 42.093 226.430,42.175 226.115,42.276 226.500 C 42.376 226.885,42.376 227.515,42.276 227.900 M44.549 231.100 C 45.181 233.287,48.400 245.243,48.400 245.406 C 48.400 245.513,50.451 245.600,52.958 245.600 L 57.517 245.600 61.931 238.300 L 66.346 231.000 60.273 230.753 C 47.707 230.242,44.322 230.316,44.549 231.100 M71.457 232.100 C 71.668 233.259,73.346 235.673,79.382 243.498 C 80.876 245.436,81.128 245.597,82.671 245.598 C 83.943 245.600,84.373 245.767,84.476 246.300 C 84.562 246.748,85.474 245.595,87.005 243.102 C 89.628 238.832,89.668 238.797,90.347 240.100 C 90.853 241.071,90.802 240.453,90.157 237.800 L 89.913 236.800 93.560 236.800 L 97.207 236.800 99.703 234.545 C 101.077 233.305,102.555 231.955,102.989 231.545 C 103.759 230.818,103.394 230.800,87.499 230.800 L 71.220 230.800 71.457 232.100 M90.683 238.300 C 90.847 238.905,90.985 239.878,90.990 240.462 C 90.996 241.046,91.114 241.453,91.254 241.367 C 91.393 241.281,91.719 242.063,91.978 243.105 C 92.237 244.147,92.713 245.919,93.036 247.042 L 93.623 249.084 100.311 246.369 C 105.134 244.412,106.985 243.480,106.944 243.027 C 106.914 242.683,106.572 241.230,106.185 239.800 L 105.481 237.200 97.933 237.200 L 90.385 237.200 90.683 238.300 " stroke="none" fill="#e8931c" fill-rule="evenodd"></path><path id="path3" d="" stroke="none" fill="#d0100bc" fill-rule="evenodd"></path><path id="path4" d="" stroke="none" fill="#d0100bc" fill-rule="evenodd"></path></g></svg>