<?xml version="1.0" standalone="no"?>
<!DOCTYPE svg PUBLIC "-//W3C//DTD SVG 20010904//EN"
 "http://www.w3.org/TR/2001/REC-SVG-20010904/DTD/svg10.dtd">
<svg version="1.0" xmlns="http://www.w3.org/2000/svg"
 width="1000.000000pt" height="1000.000000pt" viewBox="0 0 1000.000000 1000.000000"
 preserveAspectRatio="xMidYMid meet">

<g transform="translate(0.000000,1000.000000) scale(0.100000,-0.100000)"
fill="#000000" stroke="none">
<path d="M2006 5989 c-109 -170 -196 -312 -193 -315 2 -3 44 2 93 9 49 8 90
14 90 13 1 0 -1 -76 -5 -168 -4 -122 -3 -169 5 -172 8 -3 14 40 19 145 l7 150
27 -6 c14 -3 103 -27 196 -54 94 -27 171 -48 172 -47 1 0 -47 171 -105 378
l-107 377 -199 -310z"/>
<path d="M2385 5305 l-80 -74 -92 -1 c-82 0 -93 -2 -92 -17 0 -11 3 -13 6 -5
3 9 52 12 194 12 l189 0 -6 26 c-4 15 -14 51 -23 80 l-16 53 -80 -74z"/>
<path d="M1588 5333 c-14 -21 -96 -150 -183 -288 -87 -137 -164 -260 -173
-272 l-14 -23 286 0 286 0 69 107 c39 60 66 112 62 118 -112 147 -286 373
-296 383 -9 10 -17 6 -37 -25z"/>
<path d="M2134 5160 c5 -31 5 -32 -6 -12 -6 12 -14 22 -17 22 -3 0 -30 -39
-59 -86 l-53 -85 65 -231 c36 -127 66 -231 68 -233 6 -5 544 -154 581 -160 20
-4 37 -3 37 1 0 5 -25 95 -55 199 -31 105 -72 247 -92 317 l-35 128 -72 -118
c-40 -64 -98 -161 -131 -215 -38 -65 -61 -94 -66 -85 -4 7 -42 141 -84 298
-73 268 -96 342 -81 260z"/>
<path d="M1980 5108 c-3 -37 -1 -63 3 -59 4 4 7 35 5 67 l-3 59 -5 -67z"/>
<path d="M1070 4601 c0 -4 41 -19 90 -32 50 -12 90 -27 90 -31 0 -5 -7 -38
-16 -74 -9 -36 -14 -67 -11 -70 3 -3 69 5 147 17 l142 23 32 51 c18 27 42 67
55 88 l23 37 -276 0 c-152 0 -276 -4 -276 -9z"/>
<path d="M1063 4510 c0 -41 2 -58 4 -37 2 20 2 54 0 75 -2 20 -4 3 -4 -38z"/>
<path d="M1729 4493 c-13 -27 -28 -52 -35 -58 -6 -5 -19 -22 -29 -37 l-17 -28
56 0 56 0 -6 59 -7 59 49 8 c27 4 96 15 154 24 l105 18 -152 1 -151 1 -23 -47z"/>
<path d="M2123 4450 c0 -41 2 -58 4 -37 2 20 2 54 0 75 -2 20 -4 3 -4 -38z"/>
<path d="M1052 4320 c0 -19 2 -27 5 -17 2 9 2 25 0 35 -3 9 -5 1 -5 -18z"/>
<path d="M1100 4233 c0 -13 3 -14 8 -6 5 9 51 13 147 16 l140 3 -147 2 c-135
2 -148 0 -148 -15z"/>
<path d="M1556 4055 c-58 -96 -106 -177 -106 -180 0 -3 126 -5 280 -5 154 0
280 2 280 5 0 2 -48 66 -106 142 -59 76 -108 143 -109 148 -2 6 -6 22 -9 38
-6 26 -9 27 -65 27 l-59 0 -106 -175z"/>
<path d="M2507 4150 l-78 -70 -89 0 c-79 0 -90 -2 -89 -17 0 -11 3 -13 6 -5 3
9 50 12 184 12 204 0 192 -7 161 92 l-17 57 -78 -69z"/>
<path d="M1116 4180 c4 -19 11 -44 15 -55 6 -14 7 -9 3 15 -4 19 -11 44 -15
55 -6 14 -7 9 -3 -15z"/>
<path d="M734 4113 c-20 -32 -74 -116 -119 -188 -45 -71 -94 -149 -108 -172
l-27 -43 287 0 288 0 50 80 c42 68 54 80 76 80 l27 0 -30 113 c-29 106 -48
160 -33 89 6 -28 -1 -44 -50 -122 -31 -50 -63 -90 -70 -90 -8 0 -68 70 -134
156 l-120 155 -37 -58z"/>
<path d="M2265 4010 c5 -31 4 -33 -7 -12 -6 12 -14 22 -17 22 -3 0 -32 -43
-64 -94 l-58 -95 17 -58 c9 -32 18 -59 19 -61 1 -2 43 13 92 33 l90 36 -32
117 c-35 131 -47 164 -40 112z"/>
<path d="M1032 4000 c0 -14 2 -19 5 -12 2 6 2 18 0 25 -3 6 -5 1 -5 -13z"/>
<path d="M2092 3940 c0 -14 2 -19 5 -12 2 6 2 18 0 25 -3 6 -5 1 -5 -13z"/>
</g>
</svg>
